<svg width="1440" height="532" viewBox="0 0 1440 532" fill="none" xmlns="http://www.w3.org/2000/svg">
<g clip-path="url(#clip0_103_218)">
<rect width="1440" height="532" fill="#F8F8FF"/>
<g clip-path="url(#clip1_103_218)">
<path d="M1458.16 364.843C1419.38 371.355 1384.13 396.376 1365.19 430.838C1330.96 429.888 1296.13 450.139 1280.48 480.598C1268.39 468.682 1249.3 464.767 1232.69 468.275C1216.08 471.782 1201.57 484.029 1195.32 499.819C1184.44 497.36 1172.63 499.014 1162.42 503.518C1152.21 508.023 1143.51 515.876 1137.99 525.573C1136.24 519.666 1130.79 514.435 1124.89 512.645C1119 510.855 1112.24 512.22 1107.5 516.159C1102.77 520.097 1100.19 526.489 1100.87 532.612C1100.87 532.612 1458.47 539.679 1458.16 537.737C1457.86 535.794 1458.16 364.843 1458.16 364.843Z" fill="#A08CFF"/>
<path d="M1428.14 486.065C1425.4 467.715 1415.17 450.751 1399.66 440.559C1368.54 454.13 1338.85 471.482 1312.54 492.949C1314.92 508.011 1319.55 522.715 1326.23 536.425L1417.75 539.763C1426.61 523.462 1430.88 504.414 1428.14 486.065Z" fill="#FF9A7D"/>
<path d="M1354.47 494.922C1350.58 507.976 1346.69 521.03 1342.8 534.084" stroke="#2B2C34" stroke-width="1.33333" stroke-miterlimit="10" stroke-linecap="round" stroke-linejoin="round"/>
<path d="M1308.99 448.139C1299.84 450.846 1291.01 454.555 1282.64 459.111C1284.23 460.319 1285.88 461.557 1287.34 462.701C1284.52 462.212 1281.69 461.724 1278.87 461.236C1266.9 468.242 1255.95 477.022 1246.49 487.178C1247.95 489.223 1249.42 491.268 1250.88 493.313C1248.43 492.352 1245.99 491.392 1243.55 490.431C1241.39 492.9 1239.31 495.443 1237.32 498.056C1239.35 499.576 1241.38 501.096 1243.41 502.616C1240.73 501.973 1238.05 501.329 1235.37 500.685C1229.54 508.746 1224.56 517.421 1220.62 526.57C1227.37 524.423 1233.97 521.871 1240.4 518.95C1240.83 516.509 1241.26 514.067 1241.69 511.625C1242.17 513.642 1242.65 515.658 1243.14 517.673C1270.86 504.515 1295.17 484.387 1313.29 459.498L1308.99 448.139Z" fill="#FF7AD7"/>
<path d="M1242.29 507.202C1262.05 491.555 1281.8 475.908 1301.56 460.262" stroke="#2B2C34" stroke-width="1.33333" stroke-miterlimit="10" stroke-linecap="round" stroke-linejoin="round"/>
<path d="M1309.06 512.544C1309.97 514.024 1310.88 515.503 1311.79 516.982C1322.54 505.464 1331.23 492.029 1337.11 477.389L1317.59 472.897C1296.99 491.43 1282.46 516.605 1276.71 543.714C1286.22 538.766 1295.08 532.617 1303.07 525.5C1303.07 521.931 1303.06 518.362 1303.06 514.793C1304.19 517.324 1305.32 519.855 1306.45 522.386C1307.52 521.366 1308.57 520.326 1309.6 519.27C1309.42 517.028 1309.24 514.786 1309.06 512.544Z" fill="#496AFE"/>
<path d="M1310.83 494.939C1304.73 505.958 1297.17 516.168 1288.41 525.216" stroke="#2B2C34" stroke-width="1.33333" stroke-miterlimit="10" stroke-linecap="round" stroke-linejoin="round"/>
<path d="M1312.31 458.045C1287.95 474.339 1267.09 495.804 1251.38 520.536C1253.91 521.45 1256.45 522.364 1258.98 523.278C1255.71 523.549 1252.44 523.82 1249.18 524.091C1245.79 529.658 1242.66 535.378 1239.81 541.238C1252.36 538.063 1264.35 532.489 1275.04 525.089C1275.17 522.262 1275.29 519.435 1275.42 516.607C1276.32 518.701 1277.21 520.793 1278.11 522.886C1282.38 519.715 1286.43 516.255 1290.19 512.524C1304.03 498.789 1314.09 481.292 1319.02 462.426L1312.31 458.045Z" fill="#29D3F3"/>
<path d="M1307.47 472.771C1291.79 489.239 1276.12 505.707 1260.44 522.175" stroke="#2B2C34" stroke-width="1.33333" stroke-miterlimit="10" stroke-linecap="round" stroke-linejoin="round"/>
<path d="M1353.76 492.98C1354.13 495.068 1353.33 497.321 1351.73 498.715C1350.14 500.109 1348 500.956 1345.98 500.312C1344.82 503.058 1342.2 505.137 1339.26 505.646C1336.32 506.155 1333.05 505.235 1331.03 503.041C1330.18 506.025 1327.61 508.454 1324.58 509.134C1321.55 509.815 1318.27 508.599 1316.23 506.264C1314.88 507.799 1312.5 508.311 1310.64 507.463C1308.79 506.617 1307.61 504.48 1307.89 502.458C1321.51 494.516 1338.15 490.725 1353.76 492.98Z" fill="white"/>
<path d="M1372.6 433.343L1304.54 458.165C1306.36 473.181 1308.17 488.196 1309.99 503.211C1323.78 496.607 1339.47 493.904 1354.7 495.227C1362.36 471.866 1379.65 451.848 1401.61 440.79C1392.96 435.322 1382.8 432.497 1372.6 433.343Z" fill="#FFD94B"/>
<path d="M1305.31 467.192C1313.83 470.265 1323.04 471.4 1332.05 470.487C1342.94 469.384 1353.79 465.076 1361.19 457.024" stroke="#2B2C34" stroke-width="1.33333" stroke-miterlimit="10" stroke-linecap="round" stroke-linejoin="round"/>
<path d="M1310.14 499.283C1324.03 493.138 1339.64 490.93 1354.69 492.976" stroke="#2B2C34" stroke-width="1.33333" stroke-miterlimit="10" stroke-linecap="round" stroke-linejoin="round"/>
<path d="M1370.78 424.697L1303.2 445.714C1303.75 448.709 1305.11 456.827 1305.66 459.822C1318.45 463.726 1332.41 463.69 1345.03 459.242C1357.65 454.795 1368.77 446.225 1376.29 435.162L1370.78 424.697Z" fill="#FF9A7D"/>
<path d="M1328.36 454.116C1329.38 453.898 1330.4 453.679 1331.42 453.461" stroke="#2B2C34" stroke-width="1.33333" stroke-miterlimit="10" stroke-linecap="round" stroke-linejoin="round"/>
<path d="M1374.15 294.485C1375.31 293.864 1376.2 293.237 1377.36 292.616C1376.93 291.473 1375.23 290.783 1374.05 291.12C1372.43 291.589 1370.6 291.645 1368.93 291.945C1369.61 290.924 1370.07 289.95 1370.75 288.928C1370.24 288.581 1369.35 288.413 1368.76 288.584C1368.17 288.757 1367.64 289.104 1367.14 289.461C1365.79 290.418 1364.52 291.487 1363.35 292.653C1360.42 292.95 1357.36 293.242 1354.44 293.539C1350.24 290.557 1345.76 287.684 1340.74 286.521C1335.73 285.357 1330.1 285.938 1326.01 289.068C1307 299.775 1288.71 310.997 1270.96 323.101C1263.87 327.937 1259.17 336.319 1258.66 344.884C1258.2 352.577 1261.86 360.058 1267 365.803C1272.14 371.548 1278.67 375.83 1285.12 380.042L1300.22 346.92C1311.65 333.627 1323.08 320.334 1334.51 307.04C1343.64 305.998 1352.55 304.902 1361.68 303.86C1361.68 303.86 1371.91 298.662 1377.08 296.03C1376.61 294.917 1375.33 294.203 1374.15 294.485Z" fill="#FF9A7D"/>
<path d="M1294.32 341.012C1296.95 342.658 1299.58 344.304 1302.21 345.949" stroke="#2B2C34" stroke-width="1.33333" stroke-miterlimit="10" stroke-linecap="round" stroke-linejoin="round"/>
<path d="M1354.4 293.449C1356.2 294.047 1357.99 294.645 1359.78 295.243C1360.87 295.606 1361.63 296.806 1361.41 297.932C1355.54 297.871 1349.23 297.966 1343.36 297.905" stroke="#2B2C34" stroke-width="1.33333" stroke-miterlimit="10" stroke-linecap="round" stroke-linejoin="round"/>
<path d="M1373.99 294.389C1369.5 294.766 1365.01 295.143 1360.52 295.519" stroke="#2B2C34" stroke-width="1.33333" stroke-miterlimit="10" stroke-linecap="round" stroke-linejoin="round"/>
<path d="M1369.27 291.573C1366.77 292.49 1364.27 293.407 1361.76 294.325" stroke="#2B2C34" stroke-width="1.33333" stroke-miterlimit="10" stroke-linecap="round" stroke-linejoin="round"/>
<path d="M1335.08 309.275L1317.77 329.224L1315.33 332.037C1311.42 330.153 1308.7 325.734 1308.79 321.394C1307.36 322.418 1305.31 322.488 1303.81 321.559C1302.32 320.639 1301.47 318.555 1301.74 316.819C1299.1 316.073 1296.82 314.163 1295.62 311.697C1294.42 309.232 1294.57 306.098 1295.61 303.563C1297.19 302.713 1298.76 301.862 1300.34 301.02C1307.74 297.053 1315.18 293.172 1322.57 289.161C1326.73 295.863 1330.9 302.574 1335.08 309.275Z" fill="#FF7AD7"/>
<path d="M1317.77 329.224L1315.33 332.037C1311.42 330.153 1308.7 325.734 1308.79 321.394C1307.36 322.419 1305.31 322.488 1303.81 321.559C1302.32 320.639 1301.47 318.555 1301.74 316.819C1299.1 316.073 1296.82 314.162 1295.62 311.697C1294.42 309.232 1294.57 306.098 1295.61 303.563C1297.18 302.713 1298.76 301.862 1300.34 301.02C1299.49 303.294 1299.49 305.898 1300.42 308.147C1301.5 310.786 1303.8 312.896 1306.52 313.737C1306.1 314.709 1306.3 316.298 1307 317.088C1307.71 317.887 1308.89 318.226 1309.9 317.93C1310.56 322.54 1313.68 326.889 1317.77 329.224Z" fill="#FFD94B"/>
<path d="M1367.81 426.309L1369.45 429.379C1384.21 419.232 1395.61 403.893 1401.09 386.842C1384.99 394.344 1372.48 409.174 1367.81 426.309Z" fill="#FF54B7"/>
<path d="M1390.55 398.173C1382.85 407.482 1375.14 416.791 1367.44 426.101" stroke="#2B2C34" stroke-width="1.33333" stroke-miterlimit="10" stroke-linecap="round" stroke-linejoin="round"/>
<path d="M1368.35 429.368C1387.78 421.429 1406.24 407.37 1417.4 389.594C1397.05 396.521 1379.33 410.891 1368.35 429.368Z" fill="#FF7AD7"/>
<path d="M1399.55 402.713C1390.15 409.786 1380.75 416.861 1371.35 423.936" stroke="#2B2C34" stroke-width="1.33333" stroke-miterlimit="10" stroke-linecap="round" stroke-linejoin="round"/>
<path d="M1368.54 429.268L1372.46 429.295C1391.85 425.548 1410.74 416.962 1426.45 405C1405.22 406.661 1384.61 415.302 1368.54 429.268Z" fill="#FF7AD7"/>
<path d="M1407.75 412.677C1401.2 415.356 1394.64 418.033 1388.09 420.712" stroke="#2B2C34" stroke-width="1.33333" stroke-miterlimit="10" stroke-linecap="round" stroke-linejoin="round"/>
<path d="M1463.39 455.419C1459.92 457.38 1456.46 459.341 1452.99 461.302C1454.77 458.675 1456.54 456.048 1458.32 453.42C1456.36 452.666 1454.39 451.929 1452.42 451.212C1449.15 452.819 1445.87 454.427 1442.6 456.034C1444.27 453.859 1445.94 451.684 1447.62 449.509C1437.27 445.942 1426.7 442.896 1415.85 440.443C1386.96 433.909 1356.52 432.201 1327.34 437.519L1329.09 438.289C1341.35 455.883 1362.24 467.201 1383.94 473.801C1420.57 484.943 1461.45 484.046 1497.45 471.31C1486.34 465.443 1475 460.112 1463.39 455.419Z" fill="#FFD94B"/>
<path d="M1354.16 444.4C1392.4 453.281 1430.64 462.164 1468.88 471.046" stroke="#2B2C34" stroke-width="1.33333" stroke-miterlimit="10" stroke-linecap="round" stroke-linejoin="round"/>
<path d="M1441.81 494.45C1439.36 494.946 1436.92 495.442 1434.47 495.938C1436.03 494.55 1437.77 493.363 1439.63 492.407C1438.09 491.014 1436.47 489.679 1434.79 488.418C1404.19 465.566 1368.08 450.314 1330.41 444.039C1347.1 463.13 1364.56 481.899 1385.51 496.187C1386.54 492.936 1387.56 489.685 1388.59 486.434C1388.89 490.562 1389.19 494.69 1389.49 498.819C1392.56 500.783 1395.72 502.64 1398.94 504.378C1399.47 501.315 1399.99 498.252 1400.53 495.19C1401.17 498.869 1401.82 502.548 1402.47 506.228C1414 512.035 1426.31 516.243 1438.94 518.066C1439.42 515.35 1439.91 512.635 1440.39 509.919C1441.06 512.78 1441.73 515.64 1442.41 518.5C1447.48 519.053 1452.6 519.219 1457.73 518.933C1454.18 509.611 1448.8 501.331 1441.81 494.45Z" fill="#FF7AD7"/>
<path d="M1364.62 461.685C1387.34 474.545 1410.06 487.405 1432.79 500.265" stroke="#2B2C34" stroke-width="1.33333" stroke-miterlimit="10" stroke-linecap="round" stroke-linejoin="round"/>
<path d="M1458.43 426.467C1455.05 428.078 1451.68 429.689 1448.3 431.3C1450.07 429.319 1451.85 427.34 1453.62 425.36C1449.96 424.557 1446.28 423.844 1442.58 423.23C1439.64 424.614 1436.71 425.999 1433.78 427.383C1435.23 425.771 1436.68 424.157 1438.13 422.544C1430.64 421.456 1423.09 420.74 1415.52 420.426C1413.83 422.268 1412.13 424.11 1410.43 425.952C1411.07 424.078 1411.7 422.205 1412.34 420.331C1385.06 419.591 1357.68 423.891 1332.17 433.443L1338.62 436.263C1391 445.552 1444.79 446.835 1497.55 440.051C1485 434.262 1471.88 429.731 1458.43 426.467Z" fill="#496AFE"/>
<path d="M1376.99 429.349C1401.64 431.864 1426.3 434.38 1450.95 436.896" stroke="#2B2C34" stroke-width="1.33333" stroke-miterlimit="10" stroke-linecap="round" stroke-linejoin="round"/>
<path d="M1372.15 426.103L1303.49 447.441C1298.46 436.902 1294.27 425.643 1291.64 414.271C1289.27 412.049 1287.65 409.063 1287.06 405.868C1286.48 402.682 1286.93 399.236 1288.37 396.336C1285.5 396.58 1282.48 396.831 1279.49 397.065C1277.73 397.222 1275.98 397.361 1274.28 397.508C1273.15 395.902 1272.72 393.81 1273.13 391.883C1273.54 389.964 1274.61 387.925 1276.3 386.917C1273.69 385.407 1272.21 382.161 1272.79 379.2C1273.38 376.249 1276.54 373.835 1279.53 373.436C1279.14 372.464 1279.29 371.292 1279.91 370.458C1280.54 369.617 1281.87 368.957 1282.91 369.052C1281.73 366.118 1282.54 362.49 1284.87 360.337C1287.19 358.184 1290.84 357.203 1293.69 358.609C1292.09 355.727 1292.31 351.942 1294.21 349.251C1296.12 346.569 1300.14 344.138 1303.09 345.596C1304.39 346.247 1305.7 346.89 1307 347.541C1317.89 352.949 1328.77 358.357 1339.66 363.757C1340.4 365.84 1342.58 367.551 1344.75 367.915C1346.93 368.271 1349.28 367.368 1350.66 365.64C1354.04 368.523 1357.41 370.823 1360.8 373.697C1368.5 380.233 1369.84 392.516 1367.01 402.213C1367.01 402.213 1370.48 418.177 1372.15 426.103Z" fill="#29D3F3"/>
<path d="M1307 347.541C1304.41 348.391 1302.05 349.972 1300.3 352.081C1297.64 355.293 1296.38 359.434 1297.06 363.557C1294.4 362.116 1290.91 362.368 1288.49 364.182C1286.06 365.997 1284.87 369.139 1285.5 372.099C1284.38 372.195 1283.34 372.889 1282.81 373.879C1282.29 374.86 1282.19 376.049 1282.73 377.03C1280.77 377.916 1279.34 379.86 1279.07 381.996C1278.79 384.131 1279.65 387.065 1281.33 388.411C1279.83 389.704 1278.9 391.614 1278.8 393.576C1278.74 394.774 1278.98 395.981 1279.49 397.066C1277.73 397.222 1275.98 397.36 1274.28 397.509C1273.15 395.903 1272.72 393.81 1273.13 391.883C1273.54 389.964 1274.61 387.924 1276.3 386.918C1273.69 385.407 1272.21 382.16 1272.79 379.2C1273.38 376.248 1276.54 373.835 1279.53 373.436C1279.14 372.464 1279.29 371.292 1279.91 370.458C1280.54 369.616 1281.87 368.956 1282.91 369.052C1281.73 366.118 1282.54 362.49 1284.87 360.336C1287.19 358.183 1290.84 357.202 1293.69 358.609C1292.09 355.727 1292.31 351.942 1294.21 349.251C1296.12 346.569 1300.14 344.138 1303.09 345.597C1304.39 346.247 1305.7 346.89 1307 347.541Z" fill="white"/>
<path d="M1292.96 382.497C1292.3 384.747 1292.23 387.044 1292.58 389.359C1291.06 391.784 1289.54 394.209 1288.02 396.634" stroke="#2B2C34" stroke-width="1.33333" stroke-miterlimit="10" stroke-linecap="round" stroke-linejoin="round"/>
<path d="M1324.8 358.519C1329.59 360.534 1334.38 362.548 1339.16 364.562C1341.72 368.126 1346.91 369.387 1350.86 367.479C1352.91 369.444 1354.97 370.595 1357.02 372.56C1349.89 377.551 1342.05 382.437 1335.78 388.481C1332.53 391.618 1329.31 394.955 1325.22 396.867C1321.12 398.779 1315.84 398.943 1312.44 395.974C1310.24 394.059 1309.13 391.11 1308.97 388.201C1308.8 385.292 1309.49 382.399 1310.4 379.629C1313.02 371.62 1318.86 364.502 1324.8 358.519Z" fill="#FF9A7D"/>
<path d="M1317.9 393.436C1316.71 395.779 1317.26 394.699 1316.07 397.042" stroke="#2B2C34" stroke-width="1.33333" stroke-miterlimit="10" stroke-linecap="round" stroke-linejoin="round"/>
<path d="M1350.25 366.163L1337.9 362.582C1337.04 362.616 1336.19 362.65 1335.34 362.685C1334.54 365.414 1335.81 368.715 1337.99 370.54C1340.18 372.365 1343.19 373.006 1346.02 372.652C1348.84 372.297 1351.48 371.027 1353.82 369.402C1352.64 368.33 1351.42 367.234 1350.25 366.163Z" fill="#FFD94B"/>
<path d="M1356.45 354.931C1359.9 357.863 1363.35 360.795 1366.8 363.727C1370.28 366.681 1373.81 369.668 1377.91 371.659C1383.77 374.503 1390.68 375.133 1396.96 373.398" stroke="#2B2C34" stroke-width="1.33333" stroke-miterlimit="10" stroke-linecap="round" stroke-linejoin="round"/>
<path d="M1404.62 334.183C1400.64 335.298 1396.34 334.495 1392.54 332.891C1388.74 331.287 1385.32 328.924 1381.8 326.768C1378.28 324.612 1374.56 322.622 1370.5 321.894C1366.44 321.165 1361.94 321.86 1358.83 324.572" stroke="#2B2C34" stroke-width="1.33333" stroke-miterlimit="10" stroke-linecap="round" stroke-linejoin="round"/>
<path d="M1420.97 350.085C1419.74 348.989 1417.7 348.314 1416.11 348.774C1419.8 347.843 1422.5 343.996 1422.13 340.215C1421.76 336.434 1418.36 333.186 1414.57 332.987C1411.44 332.825 1408.55 334.463 1405.55 335.352C1398.3 337.505 1390.28 334.374 1384.6 329.377C1380.7 325.947 1376 323.342 1370.9 322.344C1365.81 321.346 1360.31 322.037 1355.85 324.693C1351.39 327.349 1348.09 332.051 1347.56 337.217L1353.84 352.852C1359.14 357.165 1364.41 361.576 1369.84 365.716C1375.97 370.383 1383.89 372.631 1391.56 371.878C1399.22 371.125 1406.12 366.917 1411.22 361.147C1414.23 361.497 1417.37 360.619 1419.76 358.756C1421.12 357.699 1422.28 356.257 1422.56 354.557C1422.83 352.928 1422.21 351.181 1420.97 350.085Z" fill="#2B2C34"/>
<path d="M1348.81 339.086L1351.79 342.544C1359.23 341.218 1366.18 336.703 1370.47 330.481C1362.48 330.197 1354.43 333.396 1348.81 339.086Z" fill="#FF7AD7"/>
<path d="M1353.47 339.211C1356.6 337.332 1359.72 335.452 1362.85 333.573" stroke="#2B2C34" stroke-width="1.33333" stroke-miterlimit="10" stroke-linecap="round" stroke-linejoin="round"/>
<path d="M1346.82 338.099L1350.01 339.021C1358.59 332.945 1364.26 323.287 1365.67 312.871C1356.61 318.624 1349.77 327.78 1346.82 338.099Z" fill="#FFD94B"/>
<path d="M1357.5 323.978C1354.96 328.614 1352.42 333.251 1349.88 337.888" stroke="#2B2C34" stroke-width="1.33333" stroke-miterlimit="10" stroke-linecap="round" stroke-linejoin="round"/>
<path d="M1347.05 339.141C1344.39 333.993 1343.47 327.962 1344.48 322.253C1345.49 316.545 1348.41 311.193 1352.68 307.266C1354.71 318.441 1352.58 329.217 1347.05 339.141Z" fill="#29D3F3"/>
<path d="M1349.26 318.162C1348.55 323.945 1347.84 329.728 1347.12 335.511" stroke="#2B2C34" stroke-width="1.33333" stroke-miterlimit="10" stroke-linecap="round" stroke-linejoin="round"/>
<path d="M1331.57 340.356C1332.66 340.175 1333.74 339.994 1334.83 339.812" stroke="#2B2C34" stroke-width="1.33333" stroke-miterlimit="10" stroke-linecap="round" stroke-linejoin="round"/>
<path d="M1355.63 341.928C1353.68 338.297 1349.87 335.737 1345.77 335.317C1341.69 334.897 1337.46 336.615 1334.82 339.751C1333.82 340.322 1332.89 341.014 1332.06 341.841C1333.31 343.406 1334.56 344.971 1335.81 346.536L1351.22 350.816L1355.65 353.792C1357.58 350.153 1357.57 345.558 1355.63 341.928Z" fill="#2B2C34"/>
<path d="M1351.03 367.947C1351.69 364.669 1352.56 361.625 1353.23 358.347C1355.13 358.821 1357.29 358.039 1358.44 356.454C1359.6 354.868 1359.69 352.576 1358.65 350.907C1357.62 349.239 1355.53 348.296 1353.59 348.626C1353.04 347.192 1352.08 345.979 1351.53 344.545C1350.78 345.114 1349.47 345.144 1348.62 344.748C1347.76 344.351 1347.16 343.46 1347.11 342.519C1346.34 343.417 1344.53 343.485 1343.62 342.718C1342.66 343.791 1340.95 344.369 1339.51 344.332C1338.07 344.296 1336.65 343.601 1335.74 342.481C1334.44 345.422 1333.06 348.494 1332.93 351.707C1332.85 353.594 1332.66 355.519 1333.54 357.188C1334.43 358.857 1335.94 360.182 1337.71 360.836C1337.46 362.011 1337.02 363.246 1336.76 364.42C1338.13 366.679 1340.57 368.459 1343.11 369.15C1345.66 369.84 1348.71 369.207 1351.03 367.947Z" fill="#FF9A7D"/>
<path d="M1345.08 352.184L1340.57 352.317C1340.46 353.591 1341.62 354.829 1342.9 354.79C1344.18 354.753 1345.27 353.45 1345.08 352.184Z" fill="white"/>
<path d="M1340.61 347.898C1340.18 349.056 1339.76 350.213 1339.34 351.371C1339.88 351.295 1340.42 351.22 1340.96 351.144" stroke="#2B2C34" stroke-width="1.33333" stroke-miterlimit="10" stroke-linecap="round" stroke-linejoin="round"/>
<path d="M1344.43 348.9C1344.83 348.404 1345.5 348.136 1346.13 348.219C1346.76 348.301 1347.33 348.731 1347.59 349.312" stroke="#2B2C34" stroke-width="1.33333" stroke-miterlimit="10" stroke-linecap="round" stroke-linejoin="round"/>
<path d="M1335.15 347.072C1335.65 346.697 1336.38 346.643 1336.93 346.937C1337.49 347.231 1337.85 347.858 1337.83 348.488" stroke="#2B2C34" stroke-width="1.33333" stroke-miterlimit="10" stroke-linecap="round" stroke-linejoin="round"/>
<path d="M1344.84 344.301C1345.66 344.393 1346.48 344.484 1347.29 344.576" stroke="#2B2C34" stroke-width="1.33333" stroke-miterlimit="10" stroke-linecap="round" stroke-linejoin="round"/>
<path d="M1343.32 342.674C1342.41 344.583 1340.32 345.863 1338.2 345.802" stroke="#2B2C34" stroke-width="1.33333" stroke-miterlimit="10" stroke-linecap="round" stroke-linejoin="round"/>
<path d="M1354.55 352.564C1355.62 352.492 1356.69 352.419 1357.76 352.347" stroke="#2B2C34" stroke-width="1.33333" stroke-miterlimit="10" stroke-linecap="round" stroke-linejoin="round"/>
<path d="M1337.38 361.064C1340.67 362.724 1344.73 362.747 1348.04 361.124" stroke="#2B2C34" stroke-width="1.33333" stroke-miterlimit="10" stroke-linecap="round" stroke-linejoin="round"/>
<path d="M1342.16 369.254C1342.16 367.608 1340.82 366.275 1339.18 366.275C1337.53 366.275 1336.2 367.608 1336.2 369.254C1336.2 370.899 1337.53 372.233 1339.18 372.233C1340.82 372.233 1342.16 370.899 1342.16 369.254Z" fill="#FF54B7"/>
<path d="M1357.38 415.297C1349.31 407.405 1339.32 401.304 1328.56 397.89C1324.32 403.412 1320.07 408.933 1315.82 414.456C1301.31 411.898 1286.46 409.721 1271.95 407.164C1263.65 407.393 1255.14 408.249 1247.02 409.954C1239.5 409.204 1231.94 408.639 1224.42 407.889C1224.01 408.475 1224.24 409.639 1224.73 410.16C1225.22 410.681 1225.9 410.955 1226.57 411.212C1227.94 411.743 1229.31 412.273 1230.68 412.804C1226.63 413.529 1222.47 414.262 1218.43 414.988C1218.16 415.782 1218.7 416.791 1219.44 417.188C1220.18 417.585 1221.05 417.616 1221.89 417.638C1224.71 417.713 1227.54 417.787 1230.36 417.862C1227.48 418.632 1224.68 419.288 1221.8 420.059C1221.46 420.929 1221.99 422.22 1222.83 422.639C1223.66 423.057 1224.64 423.039 1225.57 423.012C1228.72 422.92 1231.88 422.828 1235.03 422.735C1233.85 423.123 1232.67 423.51 1231.49 423.898C1231.36 424.426 1231.6 425.041 1232.08 425.304C1232.56 425.566 1233.12 425.609 1233.66 425.646C1235.87 425.796 1238.09 425.946 1240.3 426.096C1246.32 426.504 1252.33 426.912 1258.35 427.32C1258.35 427.32 1280.36 436.364 1291.39 440.726C1302.2 445.002 1313.91 449.349 1325.18 446.483C1332.49 444.621 1338.8 439.831 1343.73 434.119C1348.66 428.405 1353.7 421.889 1357.38 415.297Z" fill="#FF9A7D"/>
<path d="M1306.83 446.138C1314.16 448.583 1322.39 448.227 1329.49 445.159" stroke="#2B2C34" stroke-width="1.33333" stroke-miterlimit="10" stroke-linecap="round" stroke-linejoin="round"/>
<path d="M1315.48 414.669C1316.19 415.333 1316.91 415.997 1317.62 416.661" stroke="#2B2C34" stroke-width="1.33333" stroke-miterlimit="10" stroke-linecap="round" stroke-linejoin="round"/>
<path d="M1230.62 412.711C1234.65 412.151 1238.69 411.592 1242.72 411.033" stroke="#2B2C34" stroke-width="1.33333" stroke-miterlimit="10" stroke-linecap="round" stroke-linejoin="round"/>
<path d="M1230.29 417.574C1235.04 416.914 1239.8 416.253 1244.55 415.592" stroke="#2B2C34" stroke-width="1.33333" stroke-miterlimit="10" stroke-linecap="round" stroke-linejoin="round"/>
<path d="M1233.7 422.594C1237.88 421.937 1242.07 421.28 1246.26 420.623" stroke="#2B2C34" stroke-width="1.33333" stroke-miterlimit="10" stroke-linecap="round" stroke-linejoin="round"/>
<path d="M1295.94 414.497C1295.37 416.641 1293.99 418.568 1292.13 419.783C1293.11 420.704 1293.38 422.023 1293.16 423.351C1292.94 424.671 1292.02 425.86 1290.79 426.407C1291.79 427.953 1292.14 430.383 1291.61 432.145C1291.09 433.916 1289.76 435.427 1288.09 436.173C1288.92 437.857 1288.88 440.027 1287.89 441.625L1283.7 439.897L1259.69 430.027C1262.01 422.014 1264.35 414.01 1266.67 405.998C1275.04 406.719 1283.37 407.127 1291.73 407.769C1292.86 407.856 1293.98 407.942 1295.11 408.038C1296.13 410.017 1296.5 412.344 1295.94 414.497Z" fill="#FF7AD7"/>
<path d="M1295.94 414.497C1295.37 416.641 1293.99 418.568 1292.13 419.783C1293.11 420.704 1293.38 422.023 1293.16 423.351C1292.94 424.671 1292.02 425.86 1290.79 426.407C1291.79 427.953 1292.14 430.383 1291.61 432.145C1291.09 433.916 1289.76 435.427 1288.09 436.173C1288.92 437.857 1288.88 440.027 1287.89 441.625L1283.7 439.897C1284.08 437.709 1283.54 435.34 1282.12 433.595C1283.97 432.709 1285.46 431.138 1286.24 429.254C1287.03 427.37 1287.21 425.374 1286.56 423.447C1288.37 422.205 1289.18 419.653 1288.07 417.761C1289.84 416.675 1291.2 414.931 1291.8 412.951C1292.31 411.267 1292.28 409.436 1291.73 407.769C1292.86 407.856 1293.98 407.942 1295.11 408.038C1296.13 410.017 1296.5 412.344 1295.94 414.497Z" fill="#FFD94B"/>
<path d="M1367.67 401.51C1366.66 407.448 1365.13 413.36 1364.94 419.358C1364.92 419.94 1364.91 420.521 1364.92 421.103C1362.97 422.544 1361.24 423.438 1358.97 422.562C1356.72 421.676 1354.42 419.523 1353.95 417.144C1352.78 417.873 1351.19 417.848 1350.05 417.075C1348.91 416.302 1348.27 415.286 1348.52 413.933C1345.58 415.026 1342.1 414.54 1339.55 412.691C1337.02 410.833 1335.32 407.76 1335.46 404.627C1332.49 405.243 1329.45 405.859 1326.45 405.477C1323.44 405.104 1320.86 403.75 1319.49 401.041C1321.07 399.149 1322.66 397.274 1324.28 395.425C1329.12 389.895 1334.16 384.556 1339.37 379.4C1342.74 376.075 1346.5 372.681 1351.17 371.978C1357.71 370.997 1364.04 375.902 1366.62 381.986C1369.2 388.072 1368.77 394.99 1367.67 401.51Z" fill="#29D3F3"/>
<path d="M1364.94 419.358C1364.92 419.94 1364.91 420.521 1364.92 421.103C1362.97 422.544 1361.24 423.438 1358.97 422.561C1356.72 421.676 1354.42 419.523 1353.95 417.145C1352.78 417.874 1351.19 417.848 1350.05 417.075C1348.91 416.302 1348.27 415.287 1348.52 413.933C1345.58 415.027 1342.1 414.54 1339.55 412.691C1337.02 410.834 1335.32 407.76 1335.46 404.627C1332.49 405.243 1329.45 405.86 1326.45 405.477C1323.43 405.104 1320.86 403.749 1319.49 401.042C1321.07 399.149 1322.66 397.274 1324.28 395.425C1328.06 398.784 1333.77 399.896 1338.52 398.099C1338.01 401.215 1339.38 404.401 1341.61 406.632C1343.84 408.863 1347.18 409.931 1350.29 409.41C1350.45 410.686 1351.17 411.606 1352.26 412.275C1353.37 412.934 1354.76 413.065 1355.97 412.613C1356.02 415.261 1357.82 417.821 1360.22 418.942C1361.68 419.618 1363.37 419.74 1364.94 419.358Z" fill="white"/>
<path d="M1432.58 245.349C1432.35 245.393 1432.13 245.443 1431.9 245.498C1431.58 246.631 1431.26 247.765 1430.93 248.899C1430.62 247.974 1430.3 247.049 1429.98 246.124C1428.93 246.555 1427.93 247.116 1427.03 247.814C1426.86 247.94 1426.71 248.076 1426.55 248.21C1426.77 249.428 1426.99 250.646 1427.2 251.865C1426.61 251.011 1426.02 250.157 1425.42 249.304C1422.5 252.507 1421.14 257.188 1422.03 261.498C1426.37 261.613 1430.81 259.948 1434.29 257.322C1433.33 256.767 1432.37 256.21 1431.41 255.654C1432.97 255.693 1434.54 255.731 1436.1 255.769C1436.63 255.259 1437.12 254.721 1437.58 254.158C1440.71 250.307 1437.41 244.427 1432.58 245.349Z" fill="#29D3F3"/>
<path d="M1420.56 265.453C1422.43 259.549 1426.57 254.433 1431.9 251.43" stroke="#2B2C34" stroke-width="1.33333" stroke-miterlimit="10" stroke-linecap="round" stroke-linejoin="round"/>
<path d="M1425.32 291.898C1425.25 292.118 1425.19 292.34 1425.13 292.563C1425.99 293.375 1426.84 294.187 1427.7 295C1426.73 294.852 1425.76 294.705 1424.8 294.557C1424.69 295.689 1424.73 296.833 1424.93 297.958C1424.96 298.161 1425.01 298.36 1425.06 298.561C1426.24 298.934 1427.42 299.307 1428.6 299.68C1427.57 299.809 1426.53 299.94 1425.5 300.07C1426.98 304.148 1430.5 307.521 1434.74 308.725C1436.85 304.937 1437.43 300.231 1436.72 295.933C1435.78 296.526 1434.84 297.119 1433.9 297.712L1436.18 293.604C1435.97 292.901 1435.72 292.216 1435.44 291.549C1433.48 286.988 1426.74 287.184 1425.32 291.898Z" fill="#496AFE"/>
<path d="M1437.56 311.866C1433.19 307.469 1430.58 301.433 1430.39 295.319" stroke="#2B2C34" stroke-width="1.33333" stroke-miterlimit="10" stroke-linecap="round" stroke-linejoin="round"/>
<path d="M1055.17 510.96C1055.24 511.178 1055.32 511.394 1055.4 511.608C1056.57 511.782 1057.74 511.956 1058.9 512.13C1058.03 512.565 1057.15 513 1056.28 513.434C1056.84 514.421 1057.52 515.338 1058.33 516.145C1058.48 516.29 1058.63 516.425 1058.79 516.563C1059.97 516.191 1061.15 515.818 1062.33 515.445C1061.56 516.145 1060.79 516.844 1060.02 517.542C1063.57 520.029 1068.39 520.77 1072.55 519.324C1072.1 515.01 1069.87 510.824 1066.82 507.715C1066.39 508.739 1065.97 509.763 1065.54 510.787C1065.38 509.23 1065.21 507.673 1065.05 506.115C1064.47 505.66 1063.88 505.241 1063.26 504.86C1059.03 502.252 1053.63 506.284 1055.17 510.96Z" fill="#FFB13C"/>
<path d="M1076.66 520.276C1070.56 519.182 1064.96 515.743 1061.29 510.847" stroke="#2B2C34" stroke-width="1.33333" stroke-miterlimit="10" stroke-linecap="round" stroke-linejoin="round"/>
<path d="M1436.51 348.984C1436.51 348.374 1436.02 347.879 1435.41 347.879C1434.8 347.879 1434.3 348.374 1434.3 348.984C1434.3 349.595 1434.8 350.09 1435.41 350.09C1436.02 350.09 1436.51 349.595 1436.51 348.984Z" stroke="#2B2C34" stroke-width="1.33333" stroke-miterlimit="10" stroke-linecap="round" stroke-linejoin="round"/>
<path d="M1250.23 448.318C1250.23 447.708 1249.73 447.213 1249.12 447.213C1248.51 447.213 1248.02 447.708 1248.02 448.318C1248.02 448.929 1248.51 449.424 1249.12 449.424C1249.73 449.424 1250.23 448.929 1250.23 448.318Z" fill="#496AFE"/>
<path d="M1213.15 437.805C1213.15 437.194 1212.65 436.699 1212.04 436.699C1211.43 436.699 1210.94 437.194 1210.94 437.805C1210.94 438.415 1211.43 438.91 1212.04 438.91C1212.65 438.91 1213.15 438.415 1213.15 437.805Z" fill="#496AFE"/>
<path d="M1089.25 515.355C1089.25 514.745 1088.76 514.25 1088.15 514.25C1087.53 514.25 1087.04 514.745 1087.04 515.355C1087.04 515.966 1087.53 516.461 1088.15 516.461C1088.76 516.461 1089.25 515.966 1089.25 515.355Z" fill="#2B2C34"/>
<path d="M1046.21 520.276C1046.21 519.666 1045.72 519.17 1045.11 519.17C1044.5 519.17 1044 519.666 1044 520.276C1044 520.886 1044.5 521.382 1045.11 521.382C1045.72 521.382 1046.21 520.886 1046.21 520.276Z" fill="#496AFE"/>
<path d="M1426.37 363.099C1426.37 362.489 1425.87 361.994 1425.26 361.994C1424.65 361.994 1424.16 362.489 1424.16 363.099C1424.16 363.71 1424.65 364.205 1425.26 364.205C1425.87 364.205 1426.37 363.71 1426.37 363.099Z" fill="#496AFE"/>
<path d="M1405.59 308.11L1399.82 313.142L1407.06 315.626L1405.59 308.11Z" fill="#496AFE"/>
<path d="M1221.98 453.032L1214.55 451.173L1216.65 458.537L1221.98 453.032Z" fill="#29D3F3"/>
<path d="M1102.77 508.611L1099.25 501.809L1095.12 508.261L1102.77 508.611Z" stroke="#2B2C34" stroke-width="1.33333" stroke-miterlimit="10" stroke-linecap="round" stroke-linejoin="round"/>
<path d="M1177.8 470.406L1174.96 472.522L1188.89 492.739C1189.76 493.993 1191.49 494.278 1192.71 493.368C1193.93 492.459 1194.15 490.717 1193.2 489.531L1177.8 470.406Z" fill="#2B2C34"/>
<path d="M1178.8 448.78C1180.15 450.587 1181.19 452.513 1181.92 454.465C1182.26 455.384 1182.52 456.303 1182.73 457.219C1183.26 459.606 1183.35 461.981 1183 464.207C1182.79 465.568 1182.4 466.871 1181.86 468.084C1180.95 470.132 1179.57 471.915 1177.74 473.28C1175.89 474.654 1173.79 475.462 1171.55 475.749C1170.23 475.925 1168.88 475.92 1167.51 475.731C1165.32 475.438 1163.09 474.693 1161 473.529C1160.15 473.064 1159.31 472.526 1158.51 471.918C1156.84 470.668 1155.3 469.12 1153.95 467.313C1152.89 465.889 1151.96 464.452 1151.19 462.995C1151.05 462.741 1150.92 462.487 1150.81 462.236C1150.22 461.052 1149.75 459.868 1149.4 458.687C1148.26 454.845 1148.44 451.049 1150.52 447.598C1151.54 445.906 1153.02 444.302 1155.02 442.812C1157.01 441.331 1158.97 440.386 1160.89 439.903C1164.77 438.927 1168.48 439.83 1171.85 442.018C1172.87 442.667 1173.85 443.434 1174.79 444.296C1175.02 444.5 1175.23 444.696 1175.44 444.913C1176.62 446.061 1177.74 447.356 1178.8 448.78Z" fill="#29D3F3"/>
<path d="M1178.8 448.78C1180.15 450.587 1181.19 452.513 1181.92 454.465C1182.26 455.384 1182.52 456.303 1182.73 457.219C1183.26 459.606 1183.35 461.981 1183 464.207L1177.85 462.145L1178.43 468.592L1172.42 466.191L1173.01 472.634L1167 470.234L1167.51 475.731C1165.32 475.438 1163.09 474.693 1161 473.529C1160.15 473.064 1159.31 472.526 1158.51 471.918C1156.84 470.668 1155.3 469.12 1153.95 467.313C1152.89 465.889 1151.96 464.452 1151.19 462.995C1151.05 462.741 1150.92 462.487 1150.81 462.236C1150.22 461.052 1149.75 459.868 1149.4 458.687L1150.26 459.031L1149.67 452.588L1155.68 454.989L1155.1 448.546L1161.1 450.947L1160.52 444.504L1166.52 446.909L1165.93 440.466L1171.93 442.872L1171.85 442.018C1172.87 442.667 1173.85 443.434 1174.79 444.296C1175.02 444.5 1175.23 444.696 1175.44 444.913C1176.62 446.061 1177.74 447.356 1178.8 448.78Z" fill="#496AFE"/>
<path d="M1178.8 448.779C1179.5 449.714 1180.12 450.684 1180.64 451.674C1181.14 452.588 1181.56 453.525 1181.91 454.466L1158.51 471.917C1157.71 471.312 1156.93 470.64 1156.2 469.904C1155.4 469.118 1154.64 468.249 1153.95 467.313C1153.53 466.759 1153.14 466.204 1152.78 465.648C1152.19 464.771 1151.66 463.883 1151.19 462.995L1175.44 444.912C1176.16 445.613 1176.86 446.372 1177.54 447.188C1177.97 447.693 1178.39 448.225 1178.8 448.779Z" fill="#FFD94B"/>
<path d="M1157.1 443.517C1161.48 440.59 1167.8 440.992 1171.77 444.451" stroke="white" stroke-width="1.33333" stroke-miterlimit="10" stroke-linecap="round" stroke-linejoin="round"/>
<path d="M1155.23 497.828L1153.52 500.927L1174.56 513.583C1175.86 514.367 1177.56 513.912 1178.29 512.579C1179.03 511.246 1178.51 509.569 1177.15 508.884L1155.23 497.828Z" fill="#2B2C34"/>
<path d="M1147.21 477.717C1149.19 478.806 1150.93 480.133 1152.39 481.609C1153.08 482.305 1153.71 483.031 1154.27 483.779C1155.74 485.733 1156.8 487.861 1157.4 490.034C1157.77 491.361 1157.96 492.708 1157.97 494.035C1157.98 496.277 1157.46 498.471 1156.36 500.471C1155.25 502.483 1153.66 504.089 1151.75 505.274C1150.62 505.98 1149.38 506.534 1148.06 506.928C1145.94 507.567 1143.61 507.806 1141.22 507.612C1140.25 507.539 1139.26 507.396 1138.29 507.172C1136.25 506.722 1134.21 505.951 1132.23 504.862C1130.68 504.004 1129.23 503.08 1127.93 502.071C1127.71 501.895 1127.48 501.719 1127.27 501.537C1126.25 500.701 1125.33 499.818 1124.52 498.886C1121.9 495.86 1120.5 492.325 1120.97 488.322C1121.2 486.36 1121.88 484.29 1123.09 482.108C1124.28 479.938 1125.68 478.265 1127.23 477.031C1130.36 474.54 1134.11 473.83 1138.09 474.43C1139.28 474.601 1140.49 474.895 1141.7 475.291C1142 475.383 1142.27 475.475 1142.55 475.586C1144.1 476.144 1145.66 476.858 1147.21 477.717Z" fill="#FFD94B"/>
<path d="M1147.21 477.717C1149.19 478.806 1150.93 480.133 1152.39 481.609C1153.08 482.305 1153.71 483.031 1154.27 483.779C1155.74 485.733 1156.8 487.861 1157.4 490.034L1151.86 490.283L1155.05 495.914L1148.59 496.21L1151.79 501.835L1145.32 502.13L1148.06 506.928C1145.94 507.567 1143.61 507.806 1141.22 507.612C1140.25 507.539 1139.26 507.396 1138.29 507.172C1136.25 506.722 1134.21 505.951 1132.23 504.862C1130.68 504.004 1129.23 503.08 1127.93 502.071C1127.71 501.895 1127.48 501.719 1127.27 501.537C1126.25 500.701 1125.33 499.818 1124.52 498.886L1125.45 498.844L1122.26 493.218L1128.72 492.924L1125.52 487.298L1131.99 487.003L1128.79 481.377L1135.25 481.089L1132.05 475.464L1138.51 475.175L1138.09 474.43C1139.28 474.601 1140.49 474.895 1141.7 475.291C1142 475.383 1142.27 475.475 1142.55 475.586C1144.1 476.144 1145.66 476.858 1147.21 477.717Z" fill="#FF7AD7"/>
<path d="M1147.21 477.717C1148.23 478.28 1149.19 478.908 1150.08 479.592C1150.91 480.221 1151.68 480.9 1152.39 481.611L1138.29 507.172C1137.31 506.952 1136.32 506.661 1135.35 506.294C1134.3 505.907 1133.25 505.428 1132.23 504.864C1131.62 504.53 1131.04 504.186 1130.48 503.83C1129.58 503.274 1128.73 502.686 1127.94 502.07L1142.55 475.584C1143.49 475.926 1144.45 476.327 1145.4 476.791C1146 477.072 1146.61 477.383 1147.21 477.717Z" fill="#FDB044"/>
<path d="M1126.19 481.279C1129.18 477.454 1134.51 475.628 1139.22 476.817" stroke="white" stroke-width="1.33333" stroke-miterlimit="10" stroke-linecap="round" stroke-linejoin="round"/>
</g>
<g clip-path="url(#clip2_103_218)">
<path d="M-7.69671 212.528L-9.92224 323.799C15.6529 319.156 36.2533 295.012 36.772 269.072C37.2908 243.131 17.673 218.185 -7.69671 212.528Z" fill="#A08CFF"/>
<path d="M324.527 -14.8945C326.686 -1.69786 320.45 12.4954 309.262 19.8495C298.074 27.2035 282.14 28.3246 270.847 21.1319C261.17 28.9698 248.914 33.5818 236.46 34.0706C224.007 34.5595 210.414 30.6575 200.151 23.6021C197.709 33.524 191.641 42.5149 183.345 48.4999C175.048 54.4839 166.042 57.6571 155.838 56.8576C145.751 90.7831 122.516 120.629 92.0732 138.765C61.63 156.902 24.2817 163.147 -10.422 155.905V-24.4848L324.527 -14.8945Z" fill="#A08CFF"/>
<path d="M190.743 138.32C190.694 138.013 190.635 137.709 190.57 137.405C189.05 136.921 187.529 136.437 186.008 135.953C187.273 135.563 188.538 135.173 189.802 134.781C189.263 133.345 188.546 131.974 187.638 130.723C187.476 130.498 187.297 130.284 187.123 130.068C185.466 130.309 183.809 130.552 182.152 130.793C183.331 130.027 184.511 129.261 185.691 128.496C181.477 124.412 175.202 122.383 169.333 123.414C168.998 129.264 171.067 135.327 174.474 140.132C175.266 138.86 176.059 137.586 176.851 136.313C176.733 138.424 176.616 140.536 176.499 142.648C177.168 143.38 177.875 144.067 178.618 144.709C183.699 149.099 191.79 144.889 190.743 138.32Z" fill="#FFB13C"/>
<path d="M164.044 121.257C171.954 124.031 178.703 129.829 182.545 137.149" stroke="#2B2C34" stroke-width="1.33333" stroke-miterlimit="10" stroke-linecap="round" stroke-linejoin="round"/>
<path d="M42.1273 204.443C42.1761 204.75 42.235 205.054 42.2998 205.358C43.8201 205.842 45.3404 206.326 46.8616 206.81C45.5967 207.2 44.3318 207.59 43.0679 207.982C43.6066 209.418 44.3239 210.789 45.2316 212.04C45.3942 212.265 45.5718 212.479 45.7464 212.695C47.4043 212.454 49.0612 212.212 50.7182 211.97C49.539 212.736 48.3589 213.502 47.1788 214.267C51.3925 218.35 57.6681 220.38 63.5367 219.349C63.8718 213.499 61.8029 207.436 58.3963 202.631C57.6032 203.904 56.8112 205.177 56.0191 206.45C56.1368 204.338 56.2536 202.227 56.3713 200.115C55.7019 199.383 54.9946 198.696 54.2515 198.054C49.171 193.664 41.0798 197.873 42.1273 204.443Z" fill="#FF7AD7"/>
<path d="M68.8255 221.506C60.9159 218.732 54.1665 212.934 50.325 205.614" stroke="#2B2C34" stroke-width="1.33333" stroke-miterlimit="10" stroke-linecap="round" stroke-linejoin="round"/>
<path d="M279 49.7266C278.77 49.5165 278.535 49.3144 278.295 49.1163C276.802 49.6798 275.31 50.2434 273.816 50.8069C274.565 49.7167 275.313 48.6264 276.061 47.5362C274.744 46.7436 273.33 46.1143 271.839 45.6972C271.572 45.6215 271.3 45.5637 271.028 45.502C269.879 46.7187 268.731 47.9364 267.583 49.1531C268.031 47.8219 268.479 46.4897 268.927 45.1585C263.084 44.5701 256.903 46.8691 252.945 51.3157C256.322 56.1089 261.717 59.5778 267.376 61.2326C267.206 59.7431 267.034 58.2536 266.862 56.765C268.084 58.4925 269.307 60.221 270.529 61.9485C271.509 62.1068 272.491 62.2074 273.472 62.2502C280.186 62.5419 283.909 54.2261 279 49.7266Z" fill="#6246EA"/>
<path d="M247.458 52.9039C255.383 50.1748 264.28 50.5352 271.846 53.8906" stroke="#2B2C34" stroke-width="1.33333" stroke-miterlimit="10" stroke-linecap="round" stroke-linejoin="round"/>
<path d="M118.449 170.877C118.449 170.051 117.779 169.383 116.953 169.383C116.127 169.383 115.457 170.051 115.457 170.877C115.457 171.701 116.127 172.37 116.953 172.37C117.779 172.37 118.449 171.701 118.449 170.877Z" fill="#E45858"/>
<path d="M70.3218 135.424C70.3218 134.6 69.6515 133.931 68.8255 133.931C67.9995 133.931 67.3292 134.6 67.3292 135.424C67.3292 136.249 67.9995 136.918 68.8255 136.918C69.6515 136.918 70.3218 136.249 70.3218 135.424Z" fill="#6246EA"/>
<path d="M61.0716 263.647C61.0716 262.822 60.4013 262.153 59.5753 262.153C58.7493 262.153 58.079 262.822 58.079 263.647C58.079 264.472 58.7493 265.14 59.5753 265.14C60.4013 265.14 61.0716 264.472 61.0716 263.647Z" fill="#2B2C34"/>
<path d="M202.901 87.4136C202.901 86.5892 202.231 85.9201 201.405 85.9201C200.579 85.9201 199.908 86.5892 199.908 87.4136C199.908 88.238 200.579 88.9071 201.405 88.9071C202.231 88.9071 202.901 88.238 202.901 87.4136Z" fill="#6246EA"/>
<path d="M210.953 40.6691C210.953 39.8447 210.283 39.1756 209.457 39.1756C208.631 39.1756 207.961 39.8447 207.961 40.6691C207.961 41.4935 208.631 42.1626 209.457 42.1626C210.283 42.1626 210.953 41.4935 210.953 40.6691Z" stroke="#2B2C34" stroke-width="1.33333" stroke-miterlimit="10" stroke-linecap="round" stroke-linejoin="round"/>
<path d="M354.914 16.1861C354.914 15.3616 354.243 14.6926 353.417 14.6926C352.591 14.6926 351.921 15.3616 351.921 16.1861C351.921 17.0105 352.591 17.6796 353.417 17.6796C354.243 17.6796 354.914 17.0105 354.914 16.1861Z" fill="#6246EA"/>
<path d="M367.148 31.4017C367.148 30.5773 366.478 29.9082 365.652 29.9082C364.826 29.9082 364.155 30.5773 364.155 31.4017C364.155 32.2261 364.826 32.8952 365.652 32.8952C366.478 32.8952 367.148 32.2261 367.148 31.4017Z" stroke="#2B2C34" stroke-width="1.33333" stroke-miterlimit="10" stroke-linecap="round" stroke-linejoin="round"/>
<path d="M234.862 11.0203C234.862 10.1958 234.192 9.52675 233.366 9.52675C232.54 9.52675 231.87 10.1958 231.87 11.0203C231.87 11.8447 232.54 12.5138 233.366 12.5138C234.192 12.5138 234.862 11.8447 234.862 11.0203Z" fill="#E45858"/>
<path d="M184.041 10.9524C184.041 10.128 183.371 9.45888 182.545 9.45888C181.719 9.45888 181.048 10.128 181.048 10.9524C181.048 11.7768 181.719 12.4459 182.545 12.4459C183.371 12.4459 184.041 11.7768 184.041 10.9524Z" fill="#6246EA"/>
<path d="M21.3044 280.135C21.3044 279.311 20.6341 278.641 19.8081 278.641C18.9821 278.641 18.3118 279.311 18.3118 280.135C18.3118 280.959 18.9821 281.628 19.8081 281.628C20.6341 281.628 21.3044 280.959 21.3044 280.135Z" fill="#6246EA"/>
<path d="M88.8349 161.916L83.6517 170.877H94.0182L88.8349 161.916Z" stroke="#2B2C34" stroke-width="1.33333" stroke-miterlimit="10" stroke-linecap="round" stroke-linejoin="round"/>
<path d="M379.338 15.8039L381.329 25.9588L389.145 19.1593L379.338 15.8039Z" fill="#E45858"/>
<path d="M214.6 85.2237L224.873 86.6156L220.944 77.0403L214.6 85.2237Z" fill="#2B2C34"/>
<path d="M48.9439 160.911C49.8477 167.259 50.7505 173.607 51.6543 179.955C57.2076 185.574 63.0034 190.968 69.0366 196.107C65.4494 178.64 60.5095 161.457 54.3217 144.733C50.8163 142.127 47.3119 139.521 43.8065 136.915C46.455 137.277 49.1025 137.64 51.75 138.002C48.4033 129.488 44.7323 121.101 40.7431 112.866C35.1269 109.031 29.5107 105.197 23.8945 101.361C27.739 101.689 31.5846 102.018 35.4301 102.346C22.1857 77.1528 5.95156 53.5275 -12.9241 32.2072L-20.8246 43.0819C-11.8148 91.9415 11.7533 137.055 45.3947 173.408C46.5777 169.241 47.7608 165.076 48.9439 160.911Z" fill="#6246EA"/>
<path d="M-2.03589 65.2305C12.7438 92.2112 27.5235 119.193 42.3032 146.174" stroke="#2B2C34" stroke-width="1.33333" stroke-miterlimit="10" stroke-linecap="round" stroke-linejoin="round"/>
<path d="M110.887 135.862C112.167 141.416 113.448 146.971 114.728 152.525C127.929 158.798 141.601 164.083 155.631 168.241C147.111 151.074 137.266 134.578 126.279 118.862C119.018 116.957 111.758 115.053 104.497 113.148C109.934 112.511 115.37 111.872 120.806 111.234C111.401 98.4399 101.225 86.2021 90.3618 74.5926C82.942 74.2521 75.5222 73.9106 68.1034 73.5701C73.2947 71.5827 78.4859 69.5963 83.6782 67.609C53.7956 37.1494 19.1258 11.3137 -18.6235 -8.47424L-23.6342 15.5135C3.63784 72.3912 50.3471 119.555 106.436 148.439C107.92 144.247 109.403 140.054 110.887 135.862Z" fill="#E45858"/>
<path d="M-5.01947 17.0818C30.4993 52.0667 66.018 87.0516 101.537 122.037" stroke="#2B2C34" stroke-width="1.33333" stroke-miterlimit="10" stroke-linecap="round" stroke-linejoin="round"/>
<path d="M103.804 63.7685C105.936 69.0913 108.066 74.4132 110.198 79.7361C121.38 84.0025 132.822 87.5829 144.446 90.4256C144.184 86.5445 143.92 82.6643 143.657 78.7842C145.519 83.0407 147.382 87.2972 149.243 91.5537C158.294 93.6008 167.445 95.2128 176.661 96.3488C169.171 81.6816 159.041 68.486 147.367 56.6275C141.393 57.1722 135.418 57.7158 129.444 58.2604C133.487 55.828 137.53 53.3946 141.574 50.9622C129.77 39.8724 116.667 30.0332 103.196 21.3858C73.6071 2.38836 40.9155 -11.1896 8.35249 -24.4848L-8.1759 -4.05961C21.4313 31.2499 59.8589 58.9803 102.444 76.6415C102.897 72.3512 103.351 68.0598 103.804 63.7685Z" fill="#FFD94B"/>
<path d="M16.1968 -2.85642C53.1639 18.199 90.1321 39.2555 127.099 60.3109" stroke="#2B2C34" stroke-width="1.33333" stroke-miterlimit="10" stroke-linecap="round" stroke-linejoin="round"/>
<path d="M137.194 -0.845089C139.979 -2.94795 142.764 -5.0518 145.549 -7.15466C114.946 -27.551 78.1686 -38.596 41.0987 -37.3663L48.8606 -6.59808C70.693 7.13621 94.6222 17.5041 119.541 24.2C118.488 19.373 117.434 14.546 116.381 9.71898C119.389 15.0468 122.398 20.3756 125.407 25.7035C132.41 27.413 139.484 28.8349 146.604 29.959C145.763 25.9544 144.921 21.9488 144.079 17.9442C148.07 22.3889 152.06 26.8326 156.051 31.2772C166.791 32.5716 177.611 33.1949 188.432 33.1212C177.476 18.6014 164.263 5.97625 149.506 -4.43548C145.402 -3.23868 141.298 -2.04189 137.194 -0.845089Z" fill="#FF7AD7"/>
<path d="M59.7939 -25.9785C93.2666 -11.1102 126.739 3.7582 160.211 18.6266" stroke="#2B2C34" stroke-width="1.33333" stroke-miterlimit="10" stroke-linecap="round" stroke-linejoin="round"/>
<path d="M19.755 240.178C21.8119 240.096 23.8698 240.013 25.9278 239.93C17.278 211.49 2.69287 184.842 -16.7364 162.312L-35.217 164.616C-24.8754 193.423 -9.10813 220.263 10.9227 243.425C11.7676 240.899 12.6115 238.374 13.4564 235.849C14.2814 240.248 15.1074 244.647 15.9323 249.046C21.0119 254.573 26.3398 259.873 31.9041 264.915C30.5843 257.385 28.8436 249.933 26.7149 242.592C24.3946 241.787 22.0752 240.983 19.755 240.178Z" fill="#FFB13C"/>
<path d="M-7.15912 194.322C0.543954 207.89 8.24802 221.457 15.9511 235.025" stroke="#2B2C34" stroke-width="1.33333" stroke-miterlimit="10" stroke-linecap="round" stroke-linejoin="round"/>
<path d="M18.3737 195.11C18.4714 197.515 18.5692 199.92 18.667 202.325C22.7948 207.459 27.2279 212.361 31.9832 216.982C31.1503 207.99 29.1342 199.132 26.0748 190.643C23.7285 189.183 21.3823 187.722 19.036 186.263C20.8636 186.375 22.6901 186.488 24.5176 186.599C16.4324 166.654 2.54656 149.017 -15.2776 136.886C-8.38858 159.088 1.83032 180.273 15.81 198.67C16.6639 197.483 17.5188 196.296 18.3737 195.11Z" fill="#FFD94B"/>
<path d="M-1.33661 153.926C4.4801 163.124 10.2968 172.322 16.1135 181.52" stroke="#2B2C34" stroke-width="1.33333" stroke-miterlimit="10" stroke-linecap="round" stroke-linejoin="round"/>
<path d="M322.026 18.9288C323.62 17.6285 325.215 16.3272 326.809 15.0258C302.764 -2.50696 275.056 -15.0435 245.957 -21.3849L232.58 -8.45112C258.198 8.3578 286.966 20.3407 316.925 26.8245C316.079 24.2995 315.232 21.7745 314.386 19.2504C317.695 22.2693 321.005 25.2892 324.315 28.3081C331.704 29.6751 339.153 30.7126 346.636 31.4016C341.046 26.1783 335.165 21.2677 329.041 16.6796C326.703 17.4294 324.365 18.1791 322.026 18.9288Z" fill="#FFB13C"/>
<path d="M272.913 -1.6896C284.668 4.20677 296.423 10.1041 308.179 16.0005" stroke="#2B2C34" stroke-width="1.33333" stroke-miterlimit="10" stroke-linecap="round" stroke-linejoin="round"/>
</g>
</g>
<defs>
<clipPath id="clip0_103_218">
<rect width="1440" height="532" fill="white"/>
</clipPath>
<clipPath id="clip1_103_218">
<rect width="414" height="330" fill="white" transform="translate(1026 214)"/>
</clipPath>
<clipPath id="clip2_103_218">
<rect width="407" height="345" fill="white"/>
</clipPath>
</defs>
</svg>
