<svg width="414" height="318" viewBox="0 0 414 318" fill="none" xmlns="http://www.w3.org/2000/svg">
<g clip-path="url(#clip0_103_778)">
<path d="M432.164 150.843C393.383 157.355 358.131 182.376 339.187 216.838C304.957 215.888 270.131 236.139 254.481 266.598C242.385 254.682 223.303 250.767 206.69 254.275C190.076 257.782 175.57 270.029 169.323 285.819C158.439 283.36 146.628 285.014 136.419 289.518C126.21 294.023 117.512 301.876 111.992 311.573C110.243 305.666 104.788 300.435 98.8933 298.645C92.9974 296.855 86.2422 298.22 81.5042 302.159C76.7661 306.097 74.1896 312.489 74.8706 318.612C74.8706 318.612 432.472 325.679 432.164 323.737C431.856 321.794 432.164 150.843 432.164 150.843Z" fill="#A08CFF"/>
<path d="M402.143 272.065C399.405 253.715 389.166 236.751 373.664 226.559C342.54 240.13 312.846 257.482 286.539 278.949C288.919 294.011 293.549 308.715 300.227 322.425L391.751 325.763C400.609 309.462 404.882 290.414 402.143 272.065Z" fill="#FF9A7D"/>
<path d="M328.473 280.922C324.582 293.976 320.69 307.03 316.799 320.084" stroke="#2B2C34" stroke-width="1.33333" stroke-miterlimit="10" stroke-linecap="round" stroke-linejoin="round"/>
<path d="M282.986 234.139C273.837 236.846 265.008 240.555 256.638 245.111C258.226 246.319 259.875 247.557 261.339 248.701C258.516 248.212 255.694 247.724 252.872 247.236C240.896 254.242 229.953 263.022 220.491 273.178C221.953 275.223 223.416 277.268 224.878 279.313C222.435 278.352 219.992 277.392 217.549 276.431C215.386 278.9 213.31 281.443 211.325 284.056C213.353 285.576 215.382 287.096 217.411 288.616C214.731 287.973 212.05 287.329 209.37 286.685C203.537 294.746 198.56 303.421 194.62 312.57C201.366 310.423 207.968 307.871 214.396 304.95C214.827 302.509 215.259 300.067 215.691 297.625C216.173 299.642 216.655 301.658 217.138 303.673C244.863 290.515 269.174 270.387 287.289 245.498L282.986 234.139Z" fill="#FF7AD7"/>
<path d="M216.294 293.202C236.048 277.555 255.802 261.908 275.556 246.262" stroke="#2B2C34" stroke-width="1.33333" stroke-miterlimit="10" stroke-linecap="round" stroke-linejoin="round"/>
<path d="M283.062 298.544C283.971 300.024 284.881 301.503 285.79 302.982C296.541 291.464 305.227 278.029 311.111 263.389L291.586 258.897C270.986 277.43 256.456 302.605 250.713 329.714C260.219 324.766 269.079 318.617 277.073 311.5C277.068 307.931 277.062 304.362 277.057 300.793C278.189 303.324 279.32 305.855 280.452 308.386C281.521 307.366 282.57 306.326 283.604 305.27C283.423 303.028 283.242 300.786 283.062 298.544Z" fill="#496AFE"/>
<path d="M284.827 280.939C278.729 291.958 271.17 302.168 262.411 311.216" stroke="#2B2C34" stroke-width="1.33333" stroke-miterlimit="10" stroke-linecap="round" stroke-linejoin="round"/>
<path d="M286.311 244.045C261.955 260.339 241.095 281.804 225.382 306.536C227.915 307.45 230.447 308.364 232.979 309.278C229.711 309.549 226.443 309.82 223.175 310.091C219.792 315.658 216.661 321.378 213.813 327.238C226.363 324.063 238.346 318.489 249.039 311.089C249.166 308.262 249.292 305.435 249.418 302.607C250.317 304.701 251.214 306.793 252.112 308.886C256.381 305.715 260.428 302.255 264.188 298.524C278.026 284.789 288.095 267.292 293.018 248.426L286.311 244.045Z" fill="#29D3F3"/>
<path d="M281.468 258.771C265.793 275.239 250.118 291.707 234.443 308.175" stroke="#2B2C34" stroke-width="1.33333" stroke-miterlimit="10" stroke-linecap="round" stroke-linejoin="round"/>
<path d="M327.761 278.98C328.126 281.068 327.329 283.321 325.732 284.715C324.135 286.109 322 286.956 319.982 286.312C318.817 289.058 316.197 291.137 313.257 291.646C310.317 292.155 307.051 291.235 305.029 289.041C304.179 292.025 301.609 294.454 298.581 295.134C295.553 295.815 292.275 294.599 290.229 292.264C288.885 293.799 286.501 294.311 284.645 293.463C282.788 292.617 281.614 290.48 281.892 288.458C295.514 280.516 312.154 276.725 327.761 278.98Z" fill="white"/>
<path d="M346.603 219.343L278.539 244.165C280.357 259.181 282.173 274.196 283.991 289.211C297.78 282.607 313.465 279.904 328.697 281.227C336.355 257.866 353.651 237.848 375.608 226.79C366.962 221.322 356.799 218.497 346.603 219.343Z" fill="#FFD94B"/>
<path d="M279.306 253.192C287.828 256.265 297.042 257.4 306.055 256.487C316.938 255.384 327.788 251.076 335.193 243.024" stroke="#2B2C34" stroke-width="1.33333" stroke-miterlimit="10" stroke-linecap="round" stroke-linejoin="round"/>
<path d="M284.14 285.283C298.033 279.138 313.64 276.93 328.691 278.976" stroke="#2B2C34" stroke-width="1.33333" stroke-miterlimit="10" stroke-linecap="round" stroke-linejoin="round"/>
<path d="M344.779 210.697L277.204 231.714C277.752 234.709 279.11 242.827 279.658 245.822C292.453 249.726 306.414 249.69 319.03 245.242C331.645 240.795 342.77 232.225 350.289 221.162L344.779 210.697Z" fill="#FF9A7D"/>
<path d="M302.363 240.116C303.382 239.898 304.399 239.679 305.418 239.461" stroke="#2B2C34" stroke-width="1.33333" stroke-miterlimit="10" stroke-linecap="round" stroke-linejoin="round"/>
<path d="M348.154 80.4848C349.307 79.8635 350.204 79.2371 351.357 78.6158C350.931 77.4726 349.227 76.7828 348.055 77.1204C346.425 77.5891 344.597 77.6451 342.929 77.9451C343.61 76.9243 344.067 75.95 344.748 74.9285C344.237 74.5813 343.355 74.4126 342.762 74.5843C342.168 74.7567 341.643 75.1039 341.139 75.4613C339.79 76.418 338.52 77.4867 337.347 78.6526C334.422 78.9496 331.363 79.2415 328.438 79.5385C324.239 76.5565 319.761 73.6836 314.744 72.5206C309.727 71.3569 304.099 71.9376 300.009 75.0685C281.003 85.7752 262.706 96.997 244.963 109.101C237.874 113.937 233.17 122.319 232.661 130.884C232.204 138.577 235.864 146.058 241 151.803C246.135 157.548 252.669 161.83 259.121 166.042L274.22 132.92C285.649 119.627 297.079 106.334 308.508 93.0399C317.637 91.9978 326.55 90.9019 335.678 89.8597C335.678 89.8597 345.908 84.6623 351.076 82.0304C350.61 80.9167 349.328 80.2026 348.154 80.4848Z" fill="#FF9A7D"/>
<path d="M268.322 127.012C270.951 128.658 273.58 130.304 276.208 131.949" stroke="#2B2C34" stroke-width="1.33333" stroke-miterlimit="10" stroke-linecap="round" stroke-linejoin="round"/>
<path d="M328.403 79.4492C330.196 80.0469 331.987 80.6446 333.779 81.2431C334.867 81.6057 335.632 82.8063 335.41 83.9317C329.538 83.8706 323.231 83.9664 317.359 83.9052" stroke="#2B2C34" stroke-width="1.33333" stroke-miterlimit="10" stroke-linecap="round" stroke-linejoin="round"/>
<path d="M347.994 80.3893C343.502 80.7659 339.01 81.1425 334.518 81.5191" stroke="#2B2C34" stroke-width="1.33333" stroke-miterlimit="10" stroke-linecap="round" stroke-linejoin="round"/>
<path d="M343.273 77.5726C340.77 78.4902 338.267 79.407 335.765 80.3246" stroke="#2B2C34" stroke-width="1.33333" stroke-miterlimit="10" stroke-linecap="round" stroke-linejoin="round"/>
<path d="M309.076 95.2754L291.767 115.224L289.328 118.037C285.422 116.153 282.695 111.734 282.791 107.394C281.359 108.418 279.31 108.488 277.809 107.559C276.315 106.639 275.473 104.555 275.743 102.819C273.104 102.073 270.82 100.163 269.623 97.6972C268.416 95.2319 268.573 92.0981 269.614 89.5635C271.185 88.713 272.756 87.8617 274.337 87.02C281.741 83.0527 289.18 79.1723 296.567 75.1614C300.734 81.8631 304.9 88.5737 309.076 95.2754Z" fill="#FF7AD7"/>
<path d="M291.767 115.224L289.328 118.037C285.421 116.153 282.696 111.734 282.791 107.394C281.359 108.419 279.31 108.488 277.809 107.559C276.316 106.639 275.473 104.555 275.742 102.819C273.103 102.073 270.821 100.162 269.623 97.6971C268.416 95.2318 268.572 92.098 269.614 89.5634C271.185 88.7129 272.756 87.8616 274.336 87.0199C273.486 89.2944 273.495 91.8982 274.423 94.1469C275.499 96.7862 277.8 98.8955 280.517 99.7372C280.1 100.709 280.3 102.298 281.003 103.088C281.706 103.887 282.887 104.226 283.902 103.93C284.562 108.54 287.678 112.889 291.767 115.224Z" fill="#FFD94B"/>
<path d="M341.806 212.309L343.453 215.379C358.212 205.232 369.606 189.893 375.087 172.842C358.989 180.344 346.484 195.174 341.806 212.309Z" fill="#FF54B7"/>
<path d="M364.547 184.173C356.846 193.482 349.145 202.791 341.443 212.101" stroke="#2B2C34" stroke-width="1.33333" stroke-miterlimit="10" stroke-linecap="round" stroke-linejoin="round"/>
<path d="M342.353 215.368C361.777 207.429 380.245 193.37 391.396 175.594C371.051 182.521 353.331 196.891 342.353 215.368Z" fill="#FF7AD7"/>
<path d="M373.547 188.713C364.147 195.786 354.746 202.861 345.345 209.936" stroke="#2B2C34" stroke-width="1.33333" stroke-miterlimit="10" stroke-linecap="round" stroke-linejoin="round"/>
<path d="M342.541 215.268L346.46 215.295C365.847 211.548 384.737 202.962 400.447 191C379.225 192.661 358.606 201.302 342.541 215.268Z" fill="#FF7AD7"/>
<path d="M381.75 198.677C375.195 201.356 368.641 204.033 362.086 206.712" stroke="#2B2C34" stroke-width="1.33333" stroke-miterlimit="10" stroke-linecap="round" stroke-linejoin="round"/>
<path d="M437.385 241.419C433.921 243.38 430.456 245.341 426.992 247.302C428.768 244.675 430.545 242.048 432.321 239.42C430.361 238.666 428.395 237.929 426.419 237.212C423.145 238.819 419.872 240.427 416.598 242.034C418.27 239.859 419.943 237.684 421.615 235.509C411.273 231.942 400.698 228.896 389.85 226.443C360.962 219.909 330.524 218.201 301.338 223.519L303.085 224.289C315.354 241.883 336.24 253.201 357.938 259.801C394.567 270.943 435.453 270.046 471.451 257.31C460.34 251.443 449.003 246.112 437.385 241.419Z" fill="#FFD94B"/>
<path d="M328.156 230.4C366.397 239.281 404.639 248.164 442.88 257.046" stroke="#2B2C34" stroke-width="1.33333" stroke-miterlimit="10" stroke-linecap="round" stroke-linejoin="round"/>
<path d="M415.808 280.45C413.362 280.946 410.916 281.442 408.469 281.938C410.032 280.55 411.773 279.363 413.631 278.407C412.085 277.014 410.475 275.679 408.787 274.418C378.19 251.566 342.079 236.314 304.41 230.039C321.1 249.13 338.562 267.899 359.507 282.187C360.535 278.936 361.565 275.685 362.595 272.434C362.892 276.562 363.19 280.69 363.488 284.819C366.562 286.783 369.715 288.64 372.935 290.378C373.465 287.315 373.995 284.252 374.526 281.19C375.174 284.869 375.823 288.548 376.471 292.228C387.998 298.035 400.311 302.243 412.936 304.066C413.421 301.35 413.906 298.635 414.39 295.919C415.063 298.78 415.734 301.64 416.406 304.5C421.48 305.053 426.597 305.219 431.727 304.933C428.18 295.611 422.804 287.331 415.808 280.45Z" fill="#FF7AD7"/>
<path d="M338.618 247.685C361.341 260.545 384.064 273.405 406.789 286.265" stroke="#2B2C34" stroke-width="1.33333" stroke-miterlimit="10" stroke-linecap="round" stroke-linejoin="round"/>
<path d="M432.429 212.467C429.052 214.078 425.675 215.689 422.298 217.3C424.072 215.319 425.847 213.34 427.622 211.36C423.959 210.557 420.276 209.844 416.576 209.23C413.643 210.614 410.712 211.999 407.779 213.383C409.23 211.771 410.68 210.157 412.13 208.544C404.637 207.456 397.089 206.74 389.525 206.426C387.828 208.268 386.13 210.11 384.433 211.952C385.069 210.078 385.704 208.205 386.34 206.331C359.063 205.591 331.675 209.891 306.17 219.443L312.62 222.263C364.997 231.552 418.787 232.835 471.547 226.051C459.002 220.262 445.875 215.731 432.429 212.467Z" fill="#496AFE"/>
<path d="M350.99 215.349C375.643 217.864 400.297 220.38 424.95 222.896" stroke="#2B2C34" stroke-width="1.33333" stroke-miterlimit="10" stroke-linecap="round" stroke-linejoin="round"/>
<path d="M346.15 212.103L277.488 233.441C272.461 222.902 268.269 211.643 265.638 200.271C263.269 198.049 261.645 195.063 261.064 191.868C260.482 188.682 260.933 185.236 262.366 182.336C259.502 182.58 256.481 182.831 253.494 183.065C251.732 183.222 249.979 183.361 248.277 183.508C247.149 181.902 246.724 179.81 247.132 177.883C247.54 175.964 248.607 173.925 250.3 172.917C247.687 171.407 246.212 168.161 246.793 165.2C247.383 162.249 250.543 159.835 253.529 159.436C253.138 158.464 253.287 157.292 253.912 156.458C254.536 155.617 255.873 154.957 256.915 155.052C255.734 152.118 256.541 148.49 258.868 146.337C261.186 144.184 264.839 143.203 267.687 144.609C266.09 141.727 266.307 137.942 268.208 135.251C270.118 132.569 274.137 130.138 277.088 131.596C278.39 132.247 279.701 132.89 281.003 133.541C291.888 138.949 302.773 144.357 313.659 149.757C314.397 151.84 316.576 153.551 318.754 153.915C320.933 154.271 323.277 153.368 324.657 151.64C328.042 154.523 331.41 156.823 334.805 159.697C342.495 166.233 343.841 178.516 341.011 188.213C341.011 188.213 344.483 204.177 346.15 212.103Z" fill="#29D3F3"/>
<path d="M281.003 133.541C278.407 134.391 276.047 135.972 274.302 138.081C271.637 141.293 270.378 145.434 271.064 149.557C268.399 148.116 264.909 148.368 262.488 150.182C260.057 151.997 258.868 155.139 259.501 158.099C258.381 158.195 257.34 158.889 256.81 159.879C256.29 160.86 256.194 162.049 256.733 163.03C254.771 163.916 253.338 165.86 253.069 167.996C252.791 170.131 253.651 173.065 255.326 174.411C253.833 175.704 252.904 177.614 252.8 179.576C252.739 180.774 252.982 181.981 253.494 183.066C251.732 183.222 249.979 183.36 248.277 183.509C247.149 181.903 246.724 179.81 247.132 177.883C247.539 175.964 248.607 173.924 250.3 172.918C247.688 171.407 246.211 168.16 246.793 165.2C247.383 162.248 250.543 159.835 253.529 159.436C253.138 158.464 253.286 157.292 253.911 156.458C254.536 155.616 255.873 154.956 256.915 155.052C255.734 152.118 256.542 148.49 258.868 146.336C261.185 144.183 264.839 143.202 267.687 144.609C266.09 141.727 266.307 137.942 268.208 135.251C270.118 132.569 274.136 130.138 277.088 131.597C278.39 132.247 279.701 132.89 281.003 133.541Z" fill="white"/>
<path d="M266.955 168.497C266.304 170.747 266.231 173.044 266.581 175.359C265.061 177.784 263.542 180.209 262.023 182.634" stroke="#2B2C34" stroke-width="1.33333" stroke-miterlimit="10" stroke-linecap="round" stroke-linejoin="round"/>
<path d="M298.799 144.519C303.587 146.534 308.376 148.548 313.164 150.562C315.72 154.126 320.912 155.387 324.862 153.479C326.913 155.444 328.973 156.595 331.024 158.56C323.89 163.551 316.051 168.437 309.783 174.481C306.53 177.618 303.312 180.955 299.217 182.867C295.122 184.779 289.843 184.943 286.436 181.974C284.239 180.059 283.135 177.11 282.969 174.201C282.804 171.292 283.492 168.399 284.398 165.629C287.019 157.62 292.864 150.502 298.799 144.519Z" fill="#FF9A7D"/>
<path d="M291.896 179.436C290.711 181.779 291.257 180.699 290.072 183.042" stroke="#2B2C34" stroke-width="1.33333" stroke-miterlimit="10" stroke-linecap="round" stroke-linejoin="round"/>
<path d="M324.248 152.163L311.895 148.582C311.045 148.616 310.193 148.65 309.342 148.685C308.543 151.414 309.811 154.715 311.994 156.54C314.176 158.365 317.194 159.006 320.017 158.652C322.84 158.297 325.484 157.027 327.819 155.402C326.643 154.33 325.425 153.234 324.248 152.163Z" fill="#FFD94B"/>
<path d="M330.452 140.931C333.902 143.863 337.353 146.795 340.804 149.727C344.28 152.681 347.806 155.668 351.91 157.659C357.772 160.503 364.677 161.133 370.957 159.398" stroke="#2B2C34" stroke-width="1.33333" stroke-miterlimit="10" stroke-linecap="round" stroke-linejoin="round"/>
<path d="M378.618 120.183C374.645 121.298 370.344 120.495 366.542 118.891C362.74 117.287 359.317 114.924 355.799 112.768C352.28 110.612 348.561 108.622 344.499 107.894C340.438 107.165 335.944 107.86 332.834 110.572" stroke="#2B2C34" stroke-width="1.33333" stroke-miterlimit="10" stroke-linecap="round" stroke-linejoin="round"/>
<path d="M394.974 136.085C393.739 134.989 391.7 134.314 390.114 134.774C393.797 133.843 396.5 129.996 396.13 126.215C395.758 122.434 392.358 119.186 388.565 118.987C385.442 118.825 382.549 120.463 379.551 121.352C372.299 123.505 364.278 120.374 358.598 115.377C354.699 111.947 349.997 109.342 344.903 108.344C339.807 107.346 334.314 108.037 329.852 110.693C325.39 113.349 322.089 118.051 321.564 123.217L327.842 138.852C333.142 143.165 338.408 147.576 343.844 151.716C349.972 156.383 357.892 158.631 365.557 157.878C373.223 157.125 380.116 152.917 385.219 147.147C388.232 147.497 391.37 146.619 393.764 144.756C395.123 143.699 396.281 142.257 396.561 140.557C396.83 138.928 396.209 137.181 394.974 136.085Z" fill="#2B2C34"/>
<path d="M322.814 125.086L325.789 128.544C333.228 127.218 340.184 122.703 344.47 116.481C336.482 116.197 328.429 119.396 322.814 125.086Z" fill="#FF7AD7"/>
<path d="M327.468 125.211C330.595 123.332 333.722 121.452 336.85 119.573" stroke="#2B2C34" stroke-width="1.33333" stroke-miterlimit="10" stroke-linecap="round" stroke-linejoin="round"/>
<path d="M320.819 124.099L324.011 125.021C332.587 118.945 338.263 109.287 339.674 98.8713C330.614 104.624 323.77 113.78 320.819 124.099Z" fill="#FFD94B"/>
<path d="M331.5 109.978C328.959 114.614 326.42 119.251 323.879 123.888" stroke="#2B2C34" stroke-width="1.33333" stroke-miterlimit="10" stroke-linecap="round" stroke-linejoin="round"/>
<path d="M321.053 125.141C318.391 119.993 317.472 113.962 318.48 108.253C319.486 102.545 322.414 97.1929 326.677 93.2661C328.71 104.441 326.578 115.217 321.053 125.141Z" fill="#29D3F3"/>
<path d="M323.263 104.162C322.549 109.945 321.835 115.728 321.122 121.511" stroke="#2B2C34" stroke-width="1.33333" stroke-miterlimit="10" stroke-linecap="round" stroke-linejoin="round"/>
<path d="M305.57 126.356C306.657 126.175 307.744 125.994 308.832 125.812" stroke="#2B2C34" stroke-width="1.33333" stroke-miterlimit="10" stroke-linecap="round" stroke-linejoin="round"/>
<path d="M329.626 127.928C327.685 124.297 323.869 121.737 319.774 121.317C315.695 120.897 311.457 122.615 308.816 125.751C307.823 126.322 306.892 127.014 306.062 127.841C307.309 129.406 308.558 130.971 309.806 132.536L325.22 136.816L329.655 139.792C331.578 136.153 331.567 131.558 329.626 127.928Z" fill="#2B2C34"/>
<path d="M325.025 153.947C325.691 150.669 326.56 147.625 327.226 144.347C329.131 144.821 331.287 144.039 332.443 142.454C333.6 140.868 333.687 138.576 332.653 136.907C331.619 135.239 329.528 134.296 327.594 134.626C327.044 133.192 326.082 131.979 325.533 130.545C324.783 131.114 323.471 131.144 322.617 130.748C321.764 130.351 321.163 129.46 321.114 128.519C320.336 129.417 318.531 129.485 317.624 128.718C316.657 129.791 314.952 130.369 313.509 130.332C312.066 130.296 310.653 129.601 309.742 128.481C308.443 131.422 307.059 134.494 306.928 137.707C306.85 139.594 306.66 141.519 307.544 143.188C308.428 144.857 309.943 146.182 311.714 146.836C311.459 148.011 311.019 149.246 310.764 150.42C312.127 152.679 314.568 154.459 317.114 155.15C319.658 155.84 322.709 155.207 325.025 153.947Z" fill="#FF9A7D"/>
<path d="M319.08 138.184L314.571 138.317C314.456 139.591 315.621 140.829 316.9 140.79C318.18 140.753 319.27 139.45 319.08 138.184Z" fill="white"/>
<path d="M314.607 133.898C314.184 135.056 313.76 136.213 313.337 137.371C313.878 137.295 314.419 137.22 314.959 137.144" stroke="#2B2C34" stroke-width="1.33333" stroke-miterlimit="10" stroke-linecap="round" stroke-linejoin="round"/>
<path d="M318.433 134.9C318.83 134.404 319.495 134.136 320.125 134.219C320.755 134.301 321.329 134.731 321.585 135.312" stroke="#2B2C34" stroke-width="1.33333" stroke-miterlimit="10" stroke-linecap="round" stroke-linejoin="round"/>
<path d="M309.146 133.072C309.653 132.697 310.376 132.643 310.934 132.937C311.491 133.231 311.855 133.858 311.833 134.488" stroke="#2B2C34" stroke-width="1.33333" stroke-miterlimit="10" stroke-linecap="round" stroke-linejoin="round"/>
<path d="M318.84 130.301C319.658 130.393 320.476 130.484 321.295 130.576" stroke="#2B2C34" stroke-width="1.33333" stroke-miterlimit="10" stroke-linecap="round" stroke-linejoin="round"/>
<path d="M317.319 128.674C316.41 130.583 314.316 131.863 312.203 131.802" stroke="#2B2C34" stroke-width="1.33333" stroke-miterlimit="10" stroke-linecap="round" stroke-linejoin="round"/>
<path d="M328.548 138.564C329.618 138.492 330.689 138.419 331.76 138.347" stroke="#2B2C34" stroke-width="1.33333" stroke-miterlimit="10" stroke-linecap="round" stroke-linejoin="round"/>
<path d="M311.379 147.064C314.667 148.724 318.734 148.747 322.041 147.124" stroke="#2B2C34" stroke-width="1.33333" stroke-miterlimit="10" stroke-linecap="round" stroke-linejoin="round"/>
<path d="M316.157 155.254C316.157 153.608 314.823 152.275 313.178 152.275C311.533 152.275 310.199 153.608 310.199 155.254C310.199 156.899 311.533 158.233 313.178 158.233C314.823 158.233 316.157 156.899 316.157 155.254Z" fill="#FF54B7"/>
<path d="M331.384 201.297C323.309 193.405 313.325 187.304 302.562 183.89C298.316 189.412 294.07 194.933 289.824 200.456C275.313 197.898 260.461 195.721 245.95 193.164C237.655 193.393 229.144 194.249 221.023 195.954C213.503 195.204 205.939 194.639 198.419 193.889C198.015 194.475 198.245 195.639 198.73 196.16C199.215 196.681 199.904 196.955 200.568 197.212C201.938 197.743 203.308 198.273 204.678 198.804C200.635 199.529 196.474 200.262 192.431 200.988C192.164 201.782 192.704 202.791 193.443 203.188C194.18 203.585 195.054 203.616 195.892 203.638C198.714 203.713 201.537 203.787 204.359 203.862C201.481 204.632 198.68 205.288 195.802 206.059C195.46 206.929 195.99 208.22 196.825 208.639C197.66 209.057 198.638 209.039 199.572 209.012C202.724 208.92 205.876 208.828 209.028 208.735C207.85 209.123 206.672 209.51 205.494 209.898C205.364 210.426 205.603 211.041 206.08 211.304C206.556 211.566 207.119 211.609 207.662 211.646C209.874 211.796 212.086 211.946 214.298 212.096C220.316 212.504 226.333 212.912 232.352 213.32C232.352 213.32 254.358 222.364 265.388 226.726C276.2 231.002 287.91 235.349 299.178 232.483C306.494 230.621 312.795 225.831 317.729 220.119C322.662 214.405 327.704 207.889 331.384 201.297Z" fill="#FF9A7D"/>
<path d="M280.828 232.138C288.162 234.583 296.391 234.227 303.487 231.159" stroke="#2B2C34" stroke-width="1.33333" stroke-miterlimit="10" stroke-linecap="round" stroke-linejoin="round"/>
<path d="M289.479 200.669C290.194 201.333 290.909 201.997 291.624 202.661" stroke="#2B2C34" stroke-width="1.33333" stroke-miterlimit="10" stroke-linecap="round" stroke-linejoin="round"/>
<path d="M204.619 198.711C208.653 198.151 212.688 197.592 216.722 197.033" stroke="#2B2C34" stroke-width="1.33333" stroke-miterlimit="10" stroke-linecap="round" stroke-linejoin="round"/>
<path d="M204.286 203.574C209.043 202.914 213.798 202.253 218.555 201.592" stroke="#2B2C34" stroke-width="1.33333" stroke-miterlimit="10" stroke-linecap="round" stroke-linejoin="round"/>
<path d="M207.696 208.594C211.884 207.937 216.072 207.28 220.26 206.623" stroke="#2B2C34" stroke-width="1.33333" stroke-miterlimit="10" stroke-linecap="round" stroke-linejoin="round"/>
<path d="M269.935 200.497C269.371 202.641 267.991 204.568 266.133 205.783C267.114 206.704 267.383 208.023 267.158 209.351C266.94 210.671 266.02 211.86 264.788 212.407C265.795 213.953 266.142 216.383 265.612 218.145C265.091 219.916 263.764 221.427 262.088 222.173C262.921 223.857 262.878 226.027 261.888 227.625L257.696 225.897L233.685 216.027C236.012 208.014 238.347 200.01 240.673 191.998C249.041 192.719 257.375 193.127 265.734 193.769C266.862 193.856 267.982 193.942 269.111 194.038C270.126 196.017 270.5 198.344 269.935 200.497Z" fill="#FF7AD7"/>
<path d="M269.935 200.497C269.371 202.641 267.991 204.568 266.133 205.783C267.114 206.704 267.383 208.023 267.158 209.351C266.94 210.671 266.02 211.86 264.788 212.407C265.795 213.953 266.142 216.383 265.612 218.145C265.091 219.916 263.764 221.427 262.088 222.173C262.921 223.857 262.878 226.027 261.888 227.625L257.696 225.897C258.078 223.709 257.539 221.34 256.125 219.595C257.965 218.709 259.458 217.138 260.24 215.254C261.029 213.37 261.212 211.374 260.56 209.447C262.366 208.205 263.182 205.653 262.071 203.761C263.842 202.675 265.196 200.931 265.803 198.951C266.307 197.267 266.281 195.436 265.734 193.769C266.862 193.856 267.982 193.942 269.111 194.038C270.126 196.017 270.5 198.344 269.935 200.497Z" fill="#FFD94B"/>
<path d="M341.671 187.51C340.664 193.448 339.128 199.36 338.937 205.358C338.919 205.94 338.91 206.521 338.919 207.103C336.966 208.544 335.239 209.438 332.973 208.562C330.716 207.676 328.416 205.523 327.947 203.144C326.784 203.873 325.187 203.848 324.05 203.075C322.913 202.302 322.27 201.286 322.522 199.933C319.579 201.026 316.098 200.54 313.554 198.691C311.02 196.833 309.319 193.76 309.458 190.627C306.489 191.243 303.45 191.859 300.447 191.477C297.435 191.104 294.857 189.75 293.495 187.041C295.065 185.149 296.663 183.274 298.277 181.425C303.121 175.895 308.155 170.556 313.372 165.4C316.74 162.075 320.499 158.681 325.169 157.978C331.706 156.997 338.042 161.902 340.62 167.986C343.199 174.072 342.774 180.99 341.671 187.51Z" fill="#29D3F3"/>
<path d="M338.937 205.358C338.919 205.94 338.911 206.521 338.919 207.103C336.966 208.544 335.238 209.438 332.973 208.561C330.716 207.676 328.416 205.523 327.947 203.145C326.784 203.874 325.187 203.848 324.05 203.075C322.912 202.302 322.27 201.287 322.522 199.933C319.579 201.027 316.098 200.54 313.555 198.691C311.02 196.834 309.319 193.76 309.457 190.627C306.489 191.243 303.451 191.86 300.447 191.477C297.435 191.104 294.857 189.749 293.494 187.042C295.066 185.149 296.663 183.274 298.277 181.425C302.062 184.784 307.774 185.896 312.522 184.099C312.009 187.215 313.381 190.401 315.613 192.632C317.843 194.863 321.185 195.931 324.293 195.41C324.449 196.686 325.169 197.606 326.263 198.275C327.365 198.934 328.763 199.065 329.97 198.613C330.021 201.261 331.819 203.821 334.223 204.942C335.681 205.618 337.374 205.74 338.937 205.358Z" fill="white"/>
<path d="M406.578 31.3494C406.352 31.3929 406.127 31.443 405.904 31.4976C405.581 32.6311 405.258 33.7654 404.934 34.8989C404.616 33.974 404.299 33.049 403.981 32.124C402.93 32.5552 401.932 33.1161 401.027 33.814C400.864 33.9401 400.71 34.0757 400.554 34.2098C400.771 35.4281 400.987 36.6464 401.203 37.8647C400.61 37.0112 400.017 36.157 399.424 35.3035C396.498 38.5074 395.139 43.1882 396.035 47.4982C400.371 47.6132 404.809 45.9476 408.287 43.3223C407.327 42.7666 406.367 42.2101 405.407 41.6537C406.973 41.6928 408.537 41.7311 410.102 41.7694C410.629 41.2587 411.121 40.7214 411.579 40.1583C414.712 36.3066 411.414 30.4267 406.578 31.3494Z" fill="#29D3F3"/>
<path d="M394.559 51.4531C396.433 45.5489 400.568 40.4332 405.898 37.4299" stroke="#2B2C34" stroke-width="1.33333" stroke-miterlimit="10" stroke-linecap="round" stroke-linejoin="round"/>
<path d="M399.315 77.8975C399.249 78.1179 399.189 78.3397 399.134 78.5631C399.989 79.3752 400.844 80.1874 401.698 80.9996C400.732 80.8522 399.765 80.7048 398.798 80.5574C398.692 81.6887 398.727 82.8326 398.926 83.958C398.962 84.1607 399.011 84.3604 399.057 84.5609C400.237 84.9338 401.417 85.3068 402.597 85.6797C401.565 85.8094 400.533 85.9399 399.502 86.0696C400.984 90.1475 404.502 93.5208 408.736 94.7251C410.847 90.9369 411.43 86.231 410.716 81.9327C409.778 82.526 408.841 83.1186 407.902 83.7119L410.182 79.6045C409.973 78.9013 409.725 78.2159 409.438 77.5489C407.478 72.9875 400.74 73.1843 399.315 77.8975Z" fill="#496AFE"/>
<path d="M411.556 97.8664C407.193 93.4693 404.578 87.4332 404.387 81.3189" stroke="#2B2C34" stroke-width="1.33333" stroke-miterlimit="10" stroke-linecap="round" stroke-linejoin="round"/>
<path d="M29.1713 296.96C29.2436 297.178 29.3224 297.394 29.405 297.608C30.5716 297.782 31.7375 297.956 32.9042 298.13C32.0279 298.565 31.1516 299 30.2753 299.434C30.8384 300.421 31.5238 301.338 32.3337 302.145C32.4797 302.29 32.6344 302.425 32.787 302.563C33.9669 302.191 35.1468 301.818 36.3267 301.445C35.5573 302.145 34.7871 302.844 34.0177 303.542C37.5729 306.029 42.3899 306.77 46.5479 305.324C46.1006 301.01 43.8749 296.824 40.8216 293.715C40.3948 294.739 39.9674 295.763 39.5399 296.787C39.3756 295.23 39.2113 293.673 39.0469 292.115C38.4728 291.66 37.8758 291.241 37.2582 290.86C33.0339 288.252 27.6303 292.284 29.1713 296.96Z" fill="#FFB13C"/>
<path d="M50.6604 306.276C44.5641 305.182 38.9564 301.743 35.2884 296.847" stroke="#2B2C34" stroke-width="1.33333" stroke-miterlimit="10" stroke-linecap="round" stroke-linejoin="round"/>
<path d="M410.513 134.984C410.513 134.374 410.018 133.879 409.407 133.879C408.797 133.879 408.302 134.374 408.302 134.984C408.302 135.595 408.797 136.09 409.407 136.09C410.018 136.09 410.513 135.595 410.513 134.984Z" stroke="#2B2C34" stroke-width="1.33333" stroke-miterlimit="10" stroke-linecap="round" stroke-linejoin="round"/>
<path d="M224.226 234.318C224.226 233.708 223.731 233.213 223.121 233.213C222.511 233.213 222.015 233.708 222.015 234.318C222.015 234.929 222.511 235.424 223.121 235.424C223.731 235.424 224.226 234.929 224.226 234.318Z" fill="#496AFE"/>
<path d="M187.149 223.805C187.149 223.194 186.654 222.699 186.043 222.699C185.433 222.699 184.938 223.194 184.938 223.805C184.938 224.415 185.433 224.91 186.043 224.91C186.654 224.91 187.149 224.415 187.149 223.805Z" fill="#496AFE"/>
<path d="M63.2506 301.355C63.2506 300.745 62.7561 300.25 62.1451 300.25C61.5349 300.25 61.0396 300.745 61.0396 301.355C61.0396 301.966 61.5349 302.461 62.1451 302.461C62.7561 302.461 63.2506 301.966 63.2506 301.355Z" fill="#2B2C34"/>
<path d="M20.2109 306.276C20.2109 305.666 19.7157 305.17 19.1055 305.17C18.4953 305.17 18 305.666 18 306.276C18 306.886 18.4953 307.382 19.1055 307.382C19.7157 307.382 20.2109 306.886 20.2109 306.276Z" fill="#496AFE"/>
<path d="M400.366 149.099C400.366 148.489 399.872 147.994 399.261 147.994C398.651 147.994 398.155 148.489 398.155 149.099C398.155 149.71 398.651 150.205 399.261 150.205C399.872 150.205 400.366 149.71 400.366 149.099Z" fill="#496AFE"/>
<path d="M379.593 94.1096L373.82 99.142L381.064 101.626L379.593 94.1096Z" fill="#496AFE"/>
<path d="M195.976 239.032L188.546 237.173L190.652 244.537L195.976 239.032Z" fill="#29D3F3"/>
<path d="M76.7724 294.611L73.251 287.809L69.1217 294.261L76.7724 294.611Z" stroke="#2B2C34" stroke-width="1.33333" stroke-miterlimit="10" stroke-linecap="round" stroke-linejoin="round"/>
<path d="M151.796 256.406L148.959 258.522L162.894 278.739C163.757 279.993 165.489 280.278 166.71 279.368C167.93 278.459 168.151 276.717 167.196 275.531L151.796 256.406Z" fill="#2B2C34"/>
<path d="M152.805 234.78C154.152 236.587 155.188 238.513 155.918 240.465C156.258 241.384 156.524 242.303 156.732 243.219C157.264 245.606 157.35 247.981 156.999 250.207C156.785 251.568 156.397 252.871 155.859 254.084C154.946 256.132 153.567 257.915 151.736 259.28C149.893 260.654 147.786 261.462 145.552 261.749C144.231 261.925 142.877 261.92 141.507 261.731C139.316 261.438 137.094 260.693 134.996 259.529C134.147 259.064 133.308 258.526 132.511 257.918C130.843 256.668 129.298 255.12 127.951 253.313C126.889 251.889 125.957 250.452 125.188 248.995C125.054 248.741 124.92 248.487 124.807 248.236C124.223 247.052 123.75 245.868 123.4 244.687C122.258 240.845 122.443 237.049 124.524 233.598C125.544 231.906 127.021 230.302 129.019 228.812C131.005 227.331 132.972 226.386 134.894 225.903C138.774 224.927 142.482 225.83 145.854 228.018C146.869 228.667 147.851 229.434 148.792 230.296C149.018 230.5 149.229 230.696 149.437 230.913C150.619 232.061 151.743 233.356 152.805 234.78Z" fill="#29D3F3"/>
<path d="M152.805 234.78C154.152 236.587 155.188 238.513 155.918 240.465C156.258 241.384 156.524 242.303 156.732 243.219C157.264 245.606 157.35 247.981 156.999 250.207L151.849 248.145L152.429 254.592L146.422 252.191L147.009 258.634L141.002 256.234L141.507 261.731C139.316 261.438 137.094 260.693 134.996 259.529C134.147 259.064 133.308 258.526 132.511 257.918C130.843 256.668 129.298 255.12 127.951 253.313C126.889 251.889 125.957 250.452 125.188 248.995C125.054 248.741 124.92 248.487 124.807 248.236C124.223 247.052 123.75 245.868 123.4 244.687L124.261 245.031L123.675 238.588L129.682 240.989L129.095 234.546L135.103 236.947L134.516 230.504L140.518 232.909L139.931 226.466L145.932 228.872L145.854 228.018C146.869 228.667 147.851 229.434 148.792 230.296C149.018 230.5 149.229 230.696 149.437 230.913C150.619 232.061 151.743 233.356 152.805 234.78Z" fill="#496AFE"/>
<path d="M152.803 234.779C153.5 235.714 154.118 236.684 154.644 237.674C155.14 238.588 155.561 239.525 155.914 240.466L132.51 257.917C131.709 257.312 130.931 256.64 130.195 255.904C129.397 255.118 128.644 254.249 127.947 253.313C127.534 252.759 127.145 252.204 126.779 251.648C126.189 250.771 125.658 249.883 125.191 248.995L149.441 230.912C150.159 231.613 150.862 232.372 151.535 233.188C151.969 233.693 152.39 234.225 152.803 234.779Z" fill="#FFD94B"/>
<path d="M131.1 229.517C135.477 226.59 141.797 226.992 145.767 230.451" stroke="white" stroke-width="1.33333" stroke-miterlimit="10" stroke-linecap="round" stroke-linejoin="round"/>
<path d="M129.226 283.828L127.516 286.927L148.558 299.583C149.862 300.367 151.557 299.912 152.293 298.579C153.028 297.246 152.509 295.569 151.15 294.884L129.226 283.828Z" fill="#2B2C34"/>
<path d="M121.211 263.717C123.185 264.806 124.925 266.133 126.395 267.609C127.084 268.305 127.706 269.031 128.274 269.779C129.745 271.733 130.804 273.861 131.404 276.034C131.771 277.361 131.957 278.708 131.966 280.035C131.982 282.277 131.462 284.471 130.358 286.471C129.248 288.483 127.662 290.089 125.747 291.274C124.616 291.98 123.381 292.534 122.055 292.928C119.939 293.567 117.607 293.806 115.217 293.612C114.251 293.539 113.265 293.396 112.288 293.172C110.252 292.722 108.206 291.951 106.232 290.862C104.677 290.004 103.235 289.08 101.933 288.071C101.706 287.895 101.479 287.719 101.273 287.537C100.252 286.701 99.3319 285.818 98.5249 284.886C95.8983 281.86 94.4988 278.325 94.969 274.322C95.1989 272.36 95.8806 270.29 97.0856 268.108C98.2824 265.938 99.6835 264.265 101.233 263.031C104.364 260.54 108.115 259.83 112.088 260.43C113.281 260.601 114.492 260.895 115.705 261.291C115.995 261.383 116.269 261.475 116.548 261.586C118.098 262.144 119.656 262.858 121.211 263.717Z" fill="#FFD94B"/>
<path d="M121.211 263.717C123.185 264.806 124.925 266.133 126.395 267.609C127.084 268.305 127.706 269.031 128.274 269.779C129.745 271.733 130.804 273.861 131.404 276.034L125.862 276.283L129.054 281.914L122.591 282.21L125.787 287.835L119.324 288.13L122.055 292.928C119.939 293.567 117.607 293.806 115.217 293.612C114.251 293.539 113.265 293.396 112.288 293.172C110.252 292.722 108.206 291.951 106.232 290.862C104.677 290.004 103.235 289.08 101.933 288.071C101.706 287.895 101.479 287.719 101.273 287.537C100.252 286.701 99.3319 285.818 98.5249 284.886L99.4513 284.844L96.2565 279.218L102.718 278.924L99.5235 273.298L105.986 273.003L102.791 267.377L109.25 267.089L106.054 261.464L112.513 261.175L112.088 260.43C113.281 260.601 114.492 260.895 115.705 261.291C115.995 261.383 116.269 261.475 116.548 261.586C118.098 262.144 119.656 262.858 121.211 263.717Z" fill="#FF7AD7"/>
<path d="M121.21 263.717C122.231 264.28 123.194 264.908 124.082 265.592C124.911 266.221 125.683 266.9 126.392 267.611L112.286 293.172C111.307 292.952 110.321 292.661 109.347 292.294C108.295 291.907 107.25 291.428 106.229 290.864C105.625 290.53 105.04 290.186 104.477 289.83C103.578 289.274 102.727 288.686 101.936 288.07L116.551 261.584C117.494 261.926 118.449 262.327 119.398 262.791C120.002 263.072 120.605 263.383 121.21 263.717Z" fill="#FDB044"/>
<path d="M100.188 267.279C103.179 263.454 108.509 261.628 113.218 262.817" stroke="white" stroke-width="1.33333" stroke-miterlimit="10" stroke-linecap="round" stroke-linejoin="round"/>
</g>
<defs>
<clipPath id="clip0_103_778">
<rect width="414" height="330" fill="white"/>
</clipPath>
</defs>
</svg>
